<svg 
    style="position: absolute; width: 0; height: 0; overflow: hidden;" 
    version="1.1" xmlns="http://www.w3.org/2000/svg" 
    xmlns:xlink="http://www.w3.org/1999/xlink">

<defs>

   <!-- PROFILE ===================================== -->
        <symbol id="boxi-home" viewBox="0 0 24 24">
            <title>Home</title>
            <path d="M3 13h1v7c0 1.103.897 2 2 2h12c1.103 0 2-.897 2-2v-7h1a1 1 0 0 0 .707-1.707l-9-9a.999.999 0 0 0-1.414 0l-9 9A1 1 0 0 0 3 13zm7 7v-5h4v5h-4zm2-15.586 6 6V15l.001 5H16v-5c0-1.103-.897-2-2-2h-4c-1.103 0-2 .897-2 2v5H6v-9.586l6-6z"/>
        </symbol>

        <symbol id="boxi-user" viewBox="0 0 24 24">
            <title>User</title>
            <path d="M12 2a5 5 0 1 0 5 5 5 5 0 0 0-5-5zm0 8a3 3 0 1 1 3-3 3 3 0 0 1-3 3zm9 11v-1a7 7 0 0 0-7-7h-4a7 7 0 0 0-7 7v1h2v-1a5 5 0 0 1 5-5h4a5 5 0 0 1 5 5v1z"/>
        </symbol>

        <symbol id="boxi-bell" viewBox="0 0 24 24">
            <title>Bell</title>
            <path d="M19 13.586V10c0-3.217-2.185-5.927-5.145-6.742C13.562 2.52 12.846 2 12 2s-1.562.52-1.855 1.258C7.185 4.074 5 6.783 5 10v3.586l-1.707 1.707A.996.996 0 0 0 3 16v2a1 1 0 0 0 1 1h16a1 1 0 0 0 1-1v-2a.996.996 0 0 0-.293-.707L19 13.586zM19 17H5v-.586l1.707-1.707A.996.996 0 0 0 7 14v-4c0-2.757 2.243-5 5-5s5 2.243 5 5v4c0 .266.105.52.293.707L19 16.414V17zm-7 5a2.98 2.98 0 0 0 2.818-2H9.182A2.98 2.98 0 0 0 12 22z"/>
        </symbol>

        <symbol id="boxi-notification" viewBox="0 0 24 24">
            <title>Notification</title>
            <circle cx="18" cy="6" r="3"/>
            <path d="M18 19H5V6h8c0-.712.153-1.387.422-2H5c-1.103 0-2 .897-2 2v13c0 1.103.897 2 2 2h13c1.103 0 2-.897 2-2v-8.422A4.962 4.962 0 0 1 18 11v8z"/>
        </symbol>

        <symbol id="boxi-messages" viewBox="0 0 24 24">
            <title>Messages</title>
            <path d="M20 2H4c-1.103 0-2 .897-2 2v12c0 1.103.897 2 2 2h3v3.767L13.277 18H20c1.103 0 2-.897 2-2V4c0-1.103-.897-2-2-2zm0 14h-7.277L9 18.233V16H4V4h16v12z"/>
        </symbol>

        <symbol id="boxi-login" viewBox="0 0 24 24">
            <title>Login</title>
            <path d="m13 16 5-4-5-4v3H4v2h9z"/>
            <path d="M20 3h-9c-1.103 0-2 .897-2 2v4h2V5h9v14h-9v-4H9v4c0 1.103.897 2 2 2h9c1.103 0 2-.897 2-2V5c0-1.103-.897-2-2-2z"/>
        </symbol>

        <symbol id="boxi-logout" viewBox="0 0 24 24">
            <title>Logout</title>
            <path d="M16 13v-2H7V8l-5 4 5 4v-3z"/>
            <path d="M20 3h-9c-1.103 0-2 .897-2 2v4h2V5h9v14h-9v-4H9v4c0 1.103.897 2 2 2h9c1.103 0 2-.897 2-2V5c0-1.103-.897-2-2-2z"/>
        </symbol>

    <!-- SYSTEM =====================================   -->
        <symbol id="boxi-menu" viewBox="0 0 24 24">
            <title>Menu</title>
            <path d="M4 6h16v2H4zm0 5h16v2H4zm0 5h16v2H4z"/>
        </symbol>

        <symbol id="boxi-x" viewBox="0 0 24 24">
            <title>X</title>
            <path d="m16.192 6.344-4.243 4.242-4.242-4.242-1.414 1.414L10.535 12l-4.242 4.242 1.414 1.414 4.242-4.242 4.243 4.242 1.414-1.414L13.364 12l4.242-4.242z"/>
        </symbol>

        <symbol id="boxi-caret-down" viewBox="0 0 24 24">
            <title>Caret Down</title>
            <path d="m11.998 17 7-8h-14z"/>
        </symbol>

        <symbol id="boxi-arrow-back" viewBox="0 0 24 24">
            <title>Arrow Back</title>
            <path d="M21 11H6.414l5.293-5.293-1.414-1.414L2.586 12l7.707 7.707 1.414-1.414L6.414 13H21z"/>
        </symbol>

        <symbol id="boxi-right-arrow-alt" viewBox="0 0 24 24">
            <title>Right Arrow</title>
            <path d="m11.293 17.293 1.414 1.414L19.414 12l-6.707-6.707-1.414 1.414L15.586 11H6v2h9.586z"/>        
        </symbol>

        <symbol id="boxi-left-arrow-alt" viewBox="0 0 24 24">
            <title>Left Arrow</title>
            <path d="M12.707 17.293 8.414 13H18v-2H8.414l4.293-4.293-1.414-1.414L4.586 12l6.707 6.707z"/>      
        </symbol>

        <symbol id="boxi-search" viewBox="0 0 24 24">
            <title>Search</title>
            <path d="M10 18a7.952 7.952 0 0 0 4.897-1.688l4.396 4.396 1.414-1.414-4.396-4.396A7.952 7.952 0 0 0 18 10c0-4.411-3.589-8-8-8s-8 3.589-8 8 3.589 8 8 8zm0-14c3.309 0 6 2.691 6 6s-2.691 6-6 6-6-2.691-6-6 2.691-6 6-6z"/>
        </symbol>
    
        <symbol id="boxi-cog" viewBox="0 0 24 24">
            <title>Cog</title>
            <path d="M12 16c2.206 0 4-1.794 4-4s-1.794-4-4-4-4 1.794-4 4 1.794 4 4 4zm0-6c1.084 0 2 .916 2 2s-.916 2-2 2-2-.916-2-2 .916-2 2-2z"/>
            <path d="m2.845 16.136 1 1.73c.531.917 1.809 1.261 2.73.73l.529-.306A8.1 8.1 0 0 0 9 19.402V20c0 1.103.897 2 2 2h2c1.103 0 2-.897 2-2v-.598a8.132 8.132 0 0 0 1.896-1.111l.529.306c.923.53 2.198.188 2.731-.731l.999-1.729a2.001 2.001 0 0 0-.731-2.732l-.505-.292a7.718 7.718 0 0 0 0-2.224l.505-.292a2.002 2.002 0 0 0 .731-2.732l-.999-1.729c-.531-.92-1.808-1.265-2.731-.732l-.529.306A8.1 8.1 0 0 0 15 4.598V4c0-1.103-.897-2-2-2h-2c-1.103 0-2 .897-2 2v.598a8.132 8.132 0 0 0-1.896 1.111l-.529-.306c-.924-.531-2.2-.187-2.731.732l-.999 1.729a2.001 2.001 0 0 0 .731 2.732l.505.292a7.683 7.683 0 0 0 0 2.223l-.505.292a2.003 2.003 0 0 0-.731 2.733zm3.326-2.758A5.703 5.703 0 0 1 6 12c0-.462.058-.926.17-1.378a.999.999 0 0 0-.47-1.108l-1.123-.65.998-1.729 1.145.662a.997.997 0 0 0 1.188-.142 6.071 6.071 0 0 1 2.384-1.399A1 1 0 0 0 11 5.3V4h2v1.3a1 1 0 0 0 .708.956 6.083 6.083 0 0 1 2.384 1.399.999.999 0 0 0 1.188.142l1.144-.661 1 1.729-1.124.649a1 1 0 0 0-.47 1.108c.112.452.17.916.17 1.378 0 .461-.058.925-.171 1.378a1 1 0 0 0 .471 1.108l1.123.649-.998 1.729-1.145-.661a.996.996 0 0 0-1.188.142 6.071 6.071 0 0 1-2.384 1.399A1 1 0 0 0 13 18.7l.002 1.3H11v-1.3a1 1 0 0 0-.708-.956 6.083 6.083 0 0 1-2.384-1.399.992.992 0 0 0-1.188-.141l-1.144.662-1-1.729 1.124-.651a1 1 0 0 0 .471-1.108z"/>
        </symbol>

        <symbol id="boxi-share" viewBox="0 0 24 24">
            <title>Share</title>
             <path d="M11 7.05V4a1 1 0 0 0-1-1 1 1 0 0 0-.7.29l-7 7a1 1 0 0 0 0 1.42l7 7A1 1 0 0 0 11 18v-3.1h.85a10.89 10.89 0 0 1 8.36 3.72 1 1 0 0 0 1.11.35A1 1 0 0 0 22 18c0-9.12-8.08-10.68-11-10.95zm.85 5.83a14.74 14.74 0 0 0-2 .13A1 1 0 0 0 9 14v1.59L4.42 11 9 6.41V8a1 1 0 0 0 1 1c.91 0 8.11.2 9.67 6.43a13.07 13.07 0 0 0-7.82-2.55z"/>
        </symbol>

        <symbol id="boxi-sun" viewBox="0 0 24 24">
            <title>Sun</title>
            <path d="M6.993 12c0 2.761 2.246 5.007 5.007 5.007s5.007-2.246 5.007-5.007S14.761 6.993 12 6.993 6.993 9.239 6.993 12zM12 8.993c1.658 0 3.007 1.349 3.007 3.007S13.658 15.007 12 15.007 8.993 13.658 8.993 12 10.342 8.993 12 8.993zM10.998 19h2v3h-2zm0-17h2v3h-2zm-9 9h3v2h-3zm17 0h3v2h-3zM4.219 18.363l2.12-2.122 1.415 1.414-2.12 2.122zM16.24 6.344l2.122-2.122 1.414 1.414-2.122 2.122zM6.342 7.759 4.22 5.637l1.415-1.414 2.12 2.122zm13.434 10.605-1.414 1.414-2.122-2.122 1.414-1.414z"/>
        </symbol>

        <symbol id="boxi-moon" viewBox="0 0 24 24">
            <title>Moon</title>
            <path d="M20.742 13.045a8.088 8.088 0 0 1-2.077.271c-2.135 0-4.14-.83-5.646-2.336a8.025 8.025 0 0 1-2.064-7.723A1 1 0 0 0 9.73 2.034a10.014 10.014 0 0 0-4.489 2.582c-3.898 3.898-3.898 10.243 0 14.143a9.937 9.937 0 0 0 7.072 2.93 9.93 9.93 0 0 0 7.07-2.929 10.007 10.007 0 0 0 2.583-4.491 1.001 1.001 0 0 0-1.224-1.224zm-2.772 4.301a7.947 7.947 0 0 1-5.656 2.343 7.953 7.953 0 0 1-5.658-2.344c-3.118-3.119-3.118-8.195 0-11.314a7.923 7.923 0 0 1 2.06-1.483 10.027 10.027 0 0 0 2.89 7.848 9.972 9.972 0 0 0 7.848 2.891 8.036 8.036 0 0 1-1.484 2.059z"/>
        </symbol>

        <symbol id="boxi-vertical-dots-rounded" viewBox="0 0 24 24">
            <title>Vertical Rounded Dots</title>
            <path d="M12 10c-1.1 0-2 .9-2 2s.9 2 2 2 2-.9 2-2-.9-2-2-2zm0-6c-1.1 0-2 .9-2 2s.9 2 2 2 2-.9 2-2-.9-2-2-2zm0 12c-1.1 0-2 .9-2 2s.9 2 2 2 2-.9 2-2-.9-2-2-2z"/>
        </symbol>

        <symbol id="boxi-horizontal-dots-rounded" viewBox="0 0 24 24">
            <title>Horizontal Rounded Dots</title>
            <path d="M12 10c-1.1 0-2 .9-2 2s.9 2 2 2 2-.9 2-2-.9-2-2-2zm6 0c-1.1 0-2 .9-2 2s.9 2 2 2 2-.9 2-2-.9-2-2-2zM6 10c-1.1 0-2 .9-2 2s.9 2 2 2 2-.9 2-2-.9-2-2-2z"/>
        </symbol>

        <symbol id="boxi-caret-cookie" viewBox="0 0 24 24">
            <title>Cookie</title>
            <path d="M21.598 11.064a1.006 1.006 0 0 0-.854-.172A2.938 2.938 0 0 1 20 11c-1.654 0-3-1.346-3.003-2.937.005-.034.016-.136.017-.17a.998.998 0 0 0-1.254-1.006A2.963 2.963 0 0 1 15 7c-1.654 0-3-1.346-3-3 0-.217.031-.444.099-.716a1 1 0 0 0-1.067-1.236A9.956 9.956 0 0 0 2 12c0 5.514 4.486 10 10 10s10-4.486 10-10c0-.049-.003-.097-.007-.16a1.004 1.004 0 0 0-.395-.776zM12 20c-4.411 0-8-3.589-8-8a7.962 7.962 0 0 1 6.006-7.75A5.006 5.006 0 0 0 15 9l.101-.001a5.007 5.007 0 0 0 4.837 4C19.444 16.941 16.073 20 12 20z"/><circle cx="12.5" cy="11.5" r="1.5"/><circle cx="8.5" cy="8.5" r="1.5"/><circle cx="7.5" cy="12.5" r="1.5"/><circle cx="15.5" cy="15.5" r="1.5"/><circle cx="10.5" cy="16.5" r="1.5"/>
        </symbol>


    <!-- MAP =====================================   -->
        <symbol id="boxi-map" viewBox="0 0 24 24">
            <title>Map</title>
            <path d="M12 14c2.206 0 4-1.794 4-4s-1.794-4-4-4-4 1.794-4 4 1.794 4 4 4zm0-6c1.103 0 2 .897 2 2s-.897 2-2 2-2-.897-2-2 .897-2 2-2z"/>
            <path d="M11.42 21.814a.998.998 0 0 0 1.16 0C12.884 21.599 20.029 16.44 20 10c0-4.411-3.589-8-8-8S4 5.589 4 9.995c-.029 6.445 7.116 11.604 7.42 11.819zM12 4c3.309 0 6 2.691 6 6.005.021 4.438-4.388 8.423-6 9.73-1.611-1.308-6.021-5.294-6-9.735 0-3.309 2.691-6 6-6z"/>
        </symbol>

        <symbol id="boxi-explore" viewBox="0 0 24 24">
            <title>Explore</title>
            <path d="M12 2C6.486 2 2 6.486 2 12s4.486 10 10 10 10-4.486 10-10S17.514 2 12 2zm0 18c-4.411 0-8-3.589-8-8s3.589-8 8-8 8 3.589 8 8-3.589 8-8 8z"/>
            <path d="m8 16 5.991-2L16 8l-6 2z"/>
        </symbol>

    <!-- BLOG =====================================   -->
        <symbol id="boxi-bold" viewBox="0 0 24 24">
            <title>bold</title>
            <path d="M17.061 11.22A4.46 4.46 0 0 0 18 8.5C18 6.019 15.981 4 13.5 4H6v15h8c2.481 0 4.5-2.019 4.5-4.5a4.48 4.48 0 0 0-1.439-3.28zM13.5 7c.827 0 1.5.673 1.5 1.5s-.673 1.5-1.5 1.5H9V7h4.5zm.5 9H9v-3h5c.827 0 1.5.673 1.5 1.5S14.827 16 14 16z"/>
        </symbol>

        <symbol id="boxi-link" viewBox="0 0 24 24">
            <title>Link</title>
            <path d="M8.465 11.293c1.133-1.133 3.109-1.133 4.242 0l.707.707 1.414-1.414-.707-.707c-.943-.944-2.199-1.465-3.535-1.465s-2.592.521-3.535 1.465L4.929 12a5.008 5.008 0 0 0 0 7.071 4.983 4.983 0 0 0 3.535 1.462A4.982 4.982 0 0 0 12 19.071l.707-.707-1.414-1.414-.707.707a3.007 3.007 0 0 1-4.243 0 3.005 3.005 0 0 1 0-4.243l2.122-2.121z"/>
            <path d="m12 4.929-.707.707 1.414 1.414.707-.707a3.007 3.007 0 0 1 4.243 0 3.005 3.005 0 0 1 0 4.243l-2.122 2.121c-1.133 1.133-3.109 1.133-4.242 0L10.586 12l-1.414 1.414.707.707c.943.944 2.199 1.465 3.535 1.465s2.592-.521 3.535-1.465L19.071 12a5.008 5.008 0 0 0 0-7.071 5.006 5.006 0 0 0-7.071 0z"/>
        </symbol>

        <symbol id="boxi-code" viewBox="0 0 24 24">
            <title>Code</title>
            <path d="M8.293 6.293 2.586 12l5.707 5.707 1.414-1.414L5.414 12l4.293-4.293zm7.414 11.414L21.414 12l-5.707-5.707-1.414 1.414L18.586 12l-4.293 4.293z"/>
        </symbol>

        <symbol id="boxi-at" viewBox="0 0 24 24">
            <title>at</title>
            <path d="M12 2C6.486 2 2 6.486 2 12s4.486 10 10 10c1.466 0 2.961-.371 4.442-1.104l-.885-1.793C14.353 19.698 13.156 20 12 20c-4.411 0-8-3.589-8-8s3.589-8 8-8 8 3.589 8 8v1c0 .692-.313 2-1.5 2-1.396 0-1.494-1.819-1.5-2V8h-2v.025A4.954 4.954 0 0 0 12 7c-2.757 0-5 2.243-5 5s2.243 5 5 5c1.45 0 2.748-.631 3.662-1.621.524.89 1.408 1.621 2.838 1.621 2.273 0 3.5-2.061 3.5-4v-1c0-5.514-4.486-10-10-10zm0 13c-1.654 0-3-1.346-3-3s1.346-3 3-3 3 1.346 3 3-1.346 3-3 3z"/>        
        </symbol>

        <symbol id="boxi-copyright" viewBox="0 0 24 24">
            <title>Copyright</title>
            <path d="M12 22c5.421 0 10-4.579 10-10S17.421 2 12 2 2 6.579 2 12s4.579 10 10 10zm0-18c4.337 0 8 3.663 8 8s-3.663 8-8 8-8-3.663-8-8 3.663-8 8-8z"/>
            <path d="M12 17c.901 0 2.581-.168 3.707-1.292l-1.414-1.416C13.85 14.735 12.992 15 12 15c-1.626 0-3-1.374-3-3s1.374-3 3-3c.993 0 1.851.265 2.293.707l1.414-1.414C14.582 7.168 12.901 7 12 7c-2.757 0-5 2.243-5 5s2.243 5 5 5z"/>
        </symbol>

    <!-- LAYOUTS =====================================   -->
        <symbol id="boxi-grid" viewBox="0 0 24 24">
            <title>Grid</title>
            <path d="M15 3H4.984c-1.103 0-2 .897-2 2v14.016c0 1.103.897 2 2 2H19c1.103 0 2-.897 2-2V5c0-1.103-.897-2-2-2h-4zm4 5h-3V5h3v3zM4.984 10h3v4.016h-3V10zm5 0H14v4.016H9.984V10zM16 10h3v4.016h-3V10zm-2-5v3H9.984V5H14zM7.984 5v3h-3V5h3zm-3 11.016h3v3h-3v-3zm5 3v-3H14v3H9.984zm6.016 0v-3h3.001v3H16z"/>
        </symbol>

        <symbol id="boxi-layout" viewBox="0 0 24 24">
            <title>Layout</title>
            <path d="M19 3H5c-1.103 0-2 .897-2 2v14c0 1.103.897 2 2 2h14c1.103 0 2-.897 2-2V5c0-1.103-.897-2-2-2zm0 2 .001 4H5V5h14zM5 11h8v8H5v-8zm10 8v-8h4.001l.001 8H15z"/>
        </symbol>

    <!-- MEDIA =====================================   -->
        <symbol id="boxi-play" viewBox="0 0 24 24">
            <title>Play</title>
            <path d="M7 6v12l10-6z"/>
        </symbol>

    <!-- MEDIA =====================================   -->
        <symbol id="boxi-play" viewBox="0 0 24 24">
            <title>Play</title>
            <path d="M7 6v12l10-6z"/>
        </symbol>

    <!--    -->
        <symbol id="boxi-play-circle" viewBox="0 0 24 24">
            <title>Play Circle</title>
            <path d="M12 2C6.486 2 2 6.486 2 12s4.486 10 10 10 10-4.486 10-10S17.514 2 12 2zm0 18c-4.411 0-8-3.589-8-8s3.589-8 8-8 8 3.589 8 8-3.589 8-8 8z"/>
            <path d="m9 17 8-5-8-5z"/>
        </symbol>

    <!--    -->
        <symbol id="boxi-pause" viewBox="0 0 24 24">
            <title>Pause</title>
            <path d="M8 7h3v10H8zm5 0h3v10h-3z"/>
        </symbol>

    <!--    -->
        <symbol id="boxi-fast-forward" viewBox="0 0 24 24">
            <title>Fast Forward</title>
            <path d="m19 12-7-5v10zM5 7v10l7-5z"/>
        </symbol>

    <!--    -->
        <symbol id="boxi-rewind" viewBox="0 0 24 24">
            <title>Rewind</title>
            <path d="M12 12V7l-7 5 7 5zm7-5-7 5 7 5z"/>
        </symbol>

    <!--    -->
        <symbol id="boxi-skip-next" viewBox="0 0 24 24">
            <title>Skip Next</title>
            <path d="M7 7v10l7-5zm9 10V7h-2v10z"/>
        </symbol>

    <!--    -->
        <symbol id="boxi-skip-previous" viewBox="0 0 24 24">
            <title>Skip Previous</title>
            <path d="m16 7-7 5 7 5zm-7 5V7H7v10h2z"/>
        </symbol>

    <!--    -->
        <symbol id="boxi-shuffle" viewBox="0 0 24 24">
            <title>Shuffle</title>
            <path d="M17 17h-1.559l-9.7-10.673A1 1 0 0 0 5.001 6H2v2h2.559l4.09 4.5-4.09 4.501H2v2h3.001a1 1 0 0 0 .74-.327L10 13.987l4.259 4.686a1 1 0 0 0 .74.327H17v3l5-4-5-4v3z"/>
            <path d="M15.441 8H17v3l5-3.938L17 3v3h-2.001a1 1 0 0 0-.74.327l-3.368 3.707 1.48 1.346L15.441 8z"/>
        </symbol>

    <!--    -->
        <symbol id="boxi-repeat" viewBox="0 0 24 24">
            <title>Repeat</title>
            <path d="M21 6h-5v2h4v9H4V8h5v3l5-4-5-4v3H3a1 1 0 0 0-1 1v11a1 1 0 0 0 1 1h18a1 1 0 0 0 1-1V7a1 1 0 0 0-1-1z"/>
        </symbol>

    <!--    -->
        <symbol id="boxi-volume" viewBox="0 0 24 24">
            <title>Volume</title>
            <path d="M4 17h2.697l5.748 3.832a1.004 1.004 0 0 0 1.027.05A1 1 0 0 0 14 20V4a1 1 0 0 0-1.554-.832L6.697 7H4c-1.103 0-2 .897-2 2v6c0 1.103.897 2 2 2zm0-8h3c.033 0 .061-.016.093-.019a1.027 1.027 0 0 0 .379-.116c.026-.014.057-.017.082-.033L12 5.868v12.264l-4.445-2.964c-.025-.018-.056-.02-.082-.033a.977.977 0 0 0-.382-.116C7.059 15.016 7.032 15 7 15H4V9z"/>
        </symbol>

    <!--    -->
        <symbol id="boxi-volume-fill" viewBox="0 0 24 24">
            <title>Volume Fill</title>
            <path d="M16 21c3.527-1.547 5.999-4.909 5.999-9S19.527 4.547 16 3v2c2.387 1.386 3.999 4.047 3.999 7S18.387 17.614 16 19v2z"/>
            <path d="M16 7v10c1.225-1.1 2-3.229 2-5s-.775-3.9-2-5zM4 17h2.697l5.748 3.832a1.004 1.004 0 0 0 1.027.05A1 1 0 0 0 14 20V4a1 1 0 0 0-1.554-.832L6.697 7H4c-1.103 0-2 .897-2 2v6c0 1.103.897 2 2 2zm0-8h3c.033 0 .061-.016.093-.019a1.027 1.027 0 0 0 .38-.116c.026-.015.057-.017.082-.033L12 5.868v12.264l-4.445-2.964c-.025-.017-.056-.02-.082-.033a.986.986 0 0 0-.382-.116C7.059 15.016 7.032 15 7 15H4V9z"/>
        </symbol>

    <!--    -->
        <symbol id="boxi-upload" viewBox="0 0 24 24">
            <title>Upload</title>
            <path d="M11 15h2V9h3l-4-5-4 5h3z"/>
            <path d="M20 18H4v-7H2v7c0 1.103.897 2 2 2h16c1.103 0 2-.897 2-2v-7h-2v7z"/>
        </symbol>

    <!--    -->
        <symbol id="boxi-download" viewBox="0 0 24 24">
            <title>Download</title>
            <path d="m12 16 4-5h-3V4h-2v7H8z"/>
            <path d="M20 18H4v-7H2v7c0 1.103.897 2 2 2h16c1.103 0 2-.897 2-2v-7h-2v7z"/>
        </symbol>

    <!-- MICROINTERACTIONS  ===================================== -->
        <symbol id="boxi-star" viewBox="0 0 24 24">
            <title>Star</title>
            <path d="m6.516 14.323-1.49 6.452a.998.998 0 0 0 1.529 1.057L12 18.202l5.445 3.63a1.001 1.001 0 0 0 1.517-1.106l-1.829-6.4 4.536-4.082a1 1 0 0 0-.59-1.74l-5.701-.454-2.467-5.461a.998.998 0 0 0-1.822 0L8.622 8.05l-5.701.453a1 1 0 0 0-.619 1.713l4.214 4.107zm2.853-4.326a.998.998 0 0 0 .832-.586L12 5.43l1.799 3.981a.998.998 0 0 0 .832.586l3.972.315-3.271 2.944c-.284.256-.397.65-.293 1.018l1.253 4.385-3.736-2.491a.995.995 0 0 0-1.109 0l-3.904 2.603 1.05-4.546a1 1 0 0 0-.276-.94l-3.038-2.962 4.09-.326z"/>
        </symbol>

    <!-- Heart -->
        <symbol id="boxi-heart" viewBox="0 0 24 24">
            <title>Heart</title>
            <path d="M12 4.595a5.904 5.904 0 0 0-3.996-1.558 5.942 5.942 0 0 0-4.213 1.758c-2.353 2.363-2.352 6.059.002 8.412l7.332 7.332c.17.299.498.492.875.492a.99.99 0 0 0 .792-.409l7.415-7.415c2.354-2.354 2.354-6.049-.002-8.416a5.938 5.938 0 0 0-4.209-1.754A5.906 5.906 0 0 0 12 4.595zm6.791 1.61c1.563 1.571 1.564 4.025.002 5.588L12 18.586l-6.793-6.793c-1.562-1.563-1.561-4.017-.002-5.584.76-.756 1.754-1.172 2.799-1.172s2.035.416 2.789 1.17l.5.5a.999.999 0 0 0 1.414 0l.5-.5c1.512-1.509 4.074-1.505 5.584-.002z"/>
        </symbol>

    <!-- Bookmark -->
        <symbol id="boxi-bookmark" viewBox="0 0 24 24">
            <title>Bookmark</title>
            <path d="M18 2H6c-1.103 0-2 .897-2 2v18l8-4.572L20 22V4c0-1.103-.897-2-2-2zm0 16.553-6-3.428-6 3.428V4h12v14.553z"/>
        </symbol>

    <!--  image -->
        <symbol id="boxi-image" viewBox="0 0 24 24">
            <title>Image</title>
            <circle cx="7.499" cy="9.5" r="1.5"/>
            <path d="m10.499 14-1.5-2-3 4h12l-4.5-6z"/>
            <path d="M19.999 4h-16c-1.103 0-2 .897-2 2v12c0 1.103.897 2 2 2h16c1.103 0 2-.897 2-2V6c0-1.103-.897-2-2-2zm-16 14V6h16l.002 12H3.999z"/>
        </symbol>

    <!--  -->
        <symbol id="boxi-checkbox-checked" viewBox="0 0 24 24">
            <title>Checkbox Check</title>
            <path d="M7 5c-1.103 0-2 .897-2 2v10c0 1.103.897 2 2 2h10c1.103 0 2-.897 2-2V7c0-1.103-.897-2-2-2H7zm0 12V7h10l.002 10H7z"/>
            <path d="M10.996 12.556 9.7 11.285l-1.4 1.43 2.704 2.647 4.699-4.651-1.406-1.422z"/>
        </symbol>

    <!--    -->
        <symbol id="boxi-chevron-up" viewBox="0 0 24 24">
            <title>Chevron up</title>
            <path d="m6.293 13.293 1.414 1.414L12 10.414l4.293 4.293 1.414-1.414L12 7.586z"/>
        </symbol>

    <!--    -->
        <symbol id="boxi-chevrons-down" viewBox="0 0 24 24">
            <title>Chevrons Down</title>
            <path d="m12 15.586-4.293-4.293-1.414 1.414L12 18.414l5.707-5.707-1.414-1.414z"/>
            <path d="m17.707 7.707-1.414-1.414L12 10.586 7.707 6.293 6.293 7.707 12 13.414z"/>
        </symbol>

    <!--    -->
        <symbol id="boxi-plus" viewBox="0 0 24 24">
            <title>Plus</title>
            <path d="M19 11h-6V5h-2v6H5v2h6v6h2v-6h6z"/>
        </symbol>

    <!--    -->
        <symbol id="boxi-cloud-download" viewBox="0 0 24 24">
            <title>Cloud Download</title>
            <path d="M18.948 11.112C18.511 7.67 15.563 5 12.004 5c-2.756 0-5.15 1.611-6.243 4.15-2.148.642-3.757 2.67-3.757 4.85 0 2.757 2.243 5 5 5h1v-2h-1c-1.654 0-3-1.346-3-3 0-1.404 1.199-2.757 2.673-3.016l.581-.102.192-.558C8.153 8.273 9.898 7 12.004 7c2.757 0 5 2.243 5 5v1h1c1.103 0 2 .897 2 2s-.897 2-2 2h-2v2h2c2.206 0 4-1.794 4-4a4.008 4.008 0 0 0-3.056-3.888z"/><path d="M13.004 14v-4h-2v4h-3l4 5 4-5z"/>
        </symbol>

    <!--    -->
        <symbol id="boxi-upload" viewBox="0 0 24 24">
            <title>Upload</title>
            <path d="M19 11h-6V5h-2v6H5v2h6v6h2v-6h6z"/>
        </symbol>

    <!--    -->
        <symbol id="boxi-cloud-upload" viewBox="0 0 24 24">
            <title>Cloud Upload</title>
            <path d="M13 19v-4h3l-4-5-4 5h3v4z"/>
            <path d="M7 19h2v-2H7c-1.654 0-3-1.346-3-3 0-1.404 1.199-2.756 2.673-3.015l.581-.102.192-.558C8.149 8.274 9.895 7 12 7c2.757 0 5 2.243 5 5v1h1c1.103 0 2 .897 2 2s-.897 2-2 2h-3v2h3c2.206 0 4-1.794 4-4a4.01 4.01 0 0 0-3.056-3.888C18.507 7.67 15.56 5 12 5 9.244 5 6.85 6.611 5.757 9.15 3.609 9.792 2 11.82 2 14c0 2.757 2.243 5 5 5z"/>
        </symbol>

    <!--  CAREER =============================  -->
        <symbol id="boxi-github" viewBox="0 0 24 24">
            <title>Github</title>
            <path fill-rule="evenodd" clip-rule="evenodd" d="M12.026 2c-5.509 0-9.974 4.465-9.974 9.974 0 4.406 2.857 8.145 6.821 9.465.499.09.679-.217.679-.481 0-.237-.008-.865-.011-1.696-2.775.602-3.361-1.338-3.361-1.338-.452-1.152-1.107-1.459-1.107-1.459-.905-.619.069-.605.069-.605 1.002.07 1.527 1.028 1.527 1.028.89 1.524 2.336 1.084 2.902.829.091-.645.351-1.085.635-1.334-2.214-.251-4.542-1.107-4.542-4.93 0-1.087.389-1.979 1.024-2.675-.101-.253-.446-1.268.099-2.64 0 0 .837-.269 2.742 1.021a9.582 9.582 0 0 1 2.496-.336 9.554 9.554 0 0 1 2.496.336c1.906-1.291 2.742-1.021 2.742-1.021.545 1.372.203 2.387.099 2.64.64.696 1.024 1.587 1.024 2.675 0 3.833-2.33 4.675-4.552 4.922.355.308.675.916.675 1.846 0 1.334-.012 2.41-.012 2.737 0 .267.178.577.687.479C19.146 20.115 22 16.379 22 11.974 22 6.465 17.535 2 12.026 2z"/>
        </symbol>

        <symbol id="boxi-codepen" viewBox="0 0 24 24">
            <title>Codepen</title>
            <path d="M21.838 8.445c0-.001-.001-.001 0 0l-.003-.004-.001-.001v-.001a.809.809 0 0 0-.235-.228l-9.164-6.08a.834.834 0 0 0-.898 0L2.371 8.214A.786.786 0 0 0 2 8.897v6.16a.789.789 0 0 0 .131.448v.001l.002.002.01.015v.002h.001l.001.001.001.001c.063.088.14.16.226.215l9.165 6.082a.787.787 0 0 0 .448.139.784.784 0 0 0 .45-.139l9.165-6.082a.794.794 0 0 0 .371-.685v-6.16a.793.793 0 0 0-.133-.452zm-9.057-4.172 6.953 4.613-3.183 2.112-3.771-2.536V4.273zm-1.592 0v4.189l-3.771 2.536-3.181-2.111 6.952-4.614zm-7.595 6.098 2.395 1.59-2.395 1.611v-3.201zm7.595 9.311-6.96-4.617 3.195-2.15 3.765 2.498v4.269zm.795-5.653-3.128-2.078 3.128-2.105 3.131 2.105-3.131 2.078zm.797 5.653v-4.27l3.766-2.498 3.193 2.15-6.959 4.618zm7.597-6.11-2.396-1.611 2.396-1.59v3.201z"/>
        </symbol>

        <symbol id="boxi-behance" viewBox="0 0 24 24">
            <title>Behance</title>
            <path d="M7.803 5.731c.589 0 1.119.051 1.605.155.483.103.895.273 1.243.508.343.235.611.547.804.939.187.387.28.871.28 1.443 0 .62-.14 1.138-.421 1.551-.283.414-.7.753-1.256 1.015.757.219 1.318.602 1.69 1.146.374.549.557 1.206.557 1.976 0 .625-.119 1.162-.358 1.613a3.11 3.11 0 0 1-.974 1.114 4.315 4.315 0 0 1-1.399.64 6.287 6.287 0 0 1-1.609.206H2V5.731h5.803zm-.351 4.972c.48 0 .878-.114 1.192-.345.312-.228.463-.604.463-1.119 0-.286-.051-.522-.151-.707a1.114 1.114 0 0 0-.417-.428 1.683 1.683 0 0 0-.597-.215 3.609 3.609 0 0 0-.697-.061H4.71v2.875h2.742zm.151 5.239c.267 0 .521-.023.76-.077.241-.052.455-.136.637-.261.182-.12.332-.283.44-.491.109-.206.162-.475.162-.798 0-.634-.179-1.085-.533-1.358-.355-.27-.831-.404-1.414-.404H4.71v3.39h2.893zm8.565-.041c.367.358.896.538 1.584.538.493 0 .919-.125 1.278-.373.354-.249.57-.515.653-.79h2.155c-.346 1.072-.871 1.838-1.589 2.299-.709.463-1.572.693-2.58.693-.702 0-1.334-.113-1.9-.337a4.033 4.033 0 0 1-1.439-.958 4.37 4.37 0 0 1-.905-1.485 5.433 5.433 0 0 1-.32-1.899c0-.666.111-1.289.329-1.864a4.376 4.376 0 0 1 .934-1.493c.405-.42.885-.751 1.444-.994a4.634 4.634 0 0 1 1.858-.362c.754 0 1.413.146 1.979.44a3.967 3.967 0 0 1 1.39 1.182c.363.493.622 1.058.783 1.691.161.632.217 1.292.171 1.983h-6.431c.001.704.238 1.371.606 1.729zm2.812-4.681c-.291-.322-.783-.496-1.385-.496-.391 0-.714.065-.974.199a1.97 1.97 0 0 0-.62.491 1.772 1.772 0 0 0-.328.628 2.82 2.82 0 0 0-.111.587h3.982c-.058-.624-.272-1.085-.564-1.409zm-3.918-4.663h4.989v1.215h-4.989z"/>
        </symbol>

        <symbol id="boxi-dribbble" viewBox="0 0 24 24">
            <title>Dribbble</title>
            <path d="M20.66 6.98a9.932 9.932 0 0 0-3.641-3.64C15.486 2.447 13.813 2 12 2s-3.486.447-5.02 1.34c-1.533.893-2.747 2.107-3.64 3.64S2 10.187 2 12s.446 3.487 1.34 5.02a9.924 9.924 0 0 0 3.641 3.64C8.514 21.553 10.187 22 12 22s3.486-.447 5.02-1.34a9.932 9.932 0 0 0 3.641-3.64C21.554 15.487 22 13.813 22 12s-.446-3.487-1.34-5.02zM12 3.66c2 0 3.772.64 5.32 1.919-.92 1.174-2.286 2.14-4.1 2.9-1.002-1.813-2.088-3.327-3.261-4.54A7.715 7.715 0 0 1 12 3.66zM5.51 6.8a8.116 8.116 0 0 1 2.711-2.22c1.212 1.201 2.325 2.7 3.34 4.5-2 .6-4.114.9-6.341.9-.573 0-1.006-.013-1.3-.04A8.549 8.549 0 0 1 5.51 6.8zM3.66 12c0-.054.003-.12.01-.2.007-.08.01-.146.01-.2.254.014.641.02 1.161.02 2.666 0 5.146-.367 7.439-1.1.187.373.381.793.58 1.26-1.32.293-2.674 1.006-4.061 2.14S6.4 16.247 5.76 17.5c-1.4-1.587-2.1-3.42-2.1-5.5zM12 20.34c-1.894 0-3.594-.587-5.101-1.759.601-1.187 1.524-2.322 2.771-3.401 1.246-1.08 2.483-1.753 3.71-2.02a29.441 29.441 0 0 1 1.56 6.62 8.166 8.166 0 0 1-2.94.56zm7.08-3.96a8.351 8.351 0 0 1-2.58 2.621c-.24-2.08-.7-4.107-1.379-6.081.932-.066 1.765-.1 2.5-.1.799 0 1.686.034 2.659.1a8.098 8.098 0 0 1-1.2 3.46zm-1.24-5c-1.16 0-2.233.047-3.22.14a27.053 27.053 0 0 0-.68-1.62c2.066-.906 3.532-2.006 4.399-3.3 1.2 1.414 1.854 3.027 1.96 4.84-.812-.04-1.632-.06-2.459-.06z"/>
        </symbol>

        <symbol id="boxi-stackoverflow" viewBox="0 0 24 24">
            <title>Stackoverflow</title>
            <path d="M17.24 19.399v-4.804h1.6V21H4.381v-6.405h1.598v4.804H17.24zM7.582 17.8h8.055v-1.604H7.582V17.8zm.195-3.64 7.859 1.641.34-1.552-7.861-1.642-.338 1.553zm1.018-3.794 7.281 3.398.678-1.463-7.281-3.399-.678 1.454v.01zm2.037-3.589 6.166 5.142 1.018-1.216-6.162-5.14-1.016 1.213-.006.001zm3.982-3.778-1.311.969 4.803 6.454 1.313-.971-4.807-6.452h.002z"/>
        </symbol>

        <symbol id="boxi-figma" viewBox="0 0 24 24">
            <title>Figma</title>
            <path d="M15.332 8.668a3.333 3.333 0 0 0 0-6.663H8.668a3.333 3.333 0 0 0 0 6.663 3.333 3.333 0 0 0 0 6.665 3.333 3.333 0 0 0 0 6.664A3.334 3.334 0 0 0 12 18.664V8.668h3.332z"/><circle cx="15.332" cy="12" r="3.332"/>
        </symbol>

        <symbol id="boxi-flutter" viewBox="0 0 24 24">
            <title>Flutter</title>
            <path d="M13.9 2.01 3.9 12l3.09 3.09 2.71-2.7L20.09 2l-6.19.01zm.82 14.6 5.39-5.38h-5.93c-.11 0-.26 0-.34.07l-2.23 2.23-3.09 3.07 3.09 3.1 2.15 2.15c.07.07.14.17.26.15h6.07z"/>
        </symbol>

    <!--  SOCIAL =============================  -->
        <symbol id="boxi-facebook" viewBox="0 0 24 24">
            <title>Facebook</title>
            <path d="M13.397 20.997v-8.196h2.765l.411-3.209h-3.176V7.548c0-.926.258-1.56 1.587-1.56h1.684V3.127A22.336 22.336 0 0 0 14.201 3c-2.444 0-4.122 1.492-4.122 4.231v2.355H7.332v3.209h2.753v8.202h3.312z"/>
        </symbol>

        <symbol id="boxi-messenger" viewBox="0 0 24 24">
            <title>Messenger</title>
            <path d="M12 3c-4.92 0-8.91 3.729-8.91 8.332 0 2.616 1.291 4.952 3.311 6.479V21l3.041-1.687c.811.228 1.668.35 2.559.35 4.92 0 8.91-3.73 8.91-8.331C20.91 6.729 16.92 3 12 3zm.938 11.172-2.305-2.394-4.438 2.454 4.865-5.163 2.305 2.395 4.439-2.455-4.866 5.163z"/>
        </symbol>

        <symbol id="boxi-instagram" viewBox="0 0 24 24">
            <title>Instagram</title>
            <path d="M11.999 7.377a4.623 4.623 0 1 0 0 9.248 4.623 4.623 0 0 0 0-9.248zm0 7.627a3.004 3.004 0 1 1 0-6.008 3.004 3.004 0 0 1 0 6.008z"/>
            <circle cx="16.806" cy="7.207" r="1.078"/>
            <path d="M20.533 6.111A4.605 4.605 0 0 0 17.9 3.479a6.606 6.606 0 0 0-2.186-.42c-.963-.042-1.268-.054-3.71-.054s-2.755 0-3.71.054a6.554 6.554 0 0 0-2.184.42 4.6 4.6 0 0 0-2.633 2.632 6.585 6.585 0 0 0-.419 2.186c-.043.962-.056 1.267-.056 3.71 0 2.442 0 2.753.056 3.71.015.748.156 1.486.419 2.187a4.61 4.61 0 0 0 2.634 2.632 6.584 6.584 0 0 0 2.185.45c.963.042 1.268.055 3.71.055s2.755 0 3.71-.055a6.615 6.615 0 0 0 2.186-.419 4.613 4.613 0 0 0 2.633-2.633c.263-.7.404-1.438.419-2.186.043-.962.056-1.267.056-3.71s0-2.753-.056-3.71a6.581 6.581 0 0 0-.421-2.217zm-1.218 9.532a5.043 5.043 0 0 1-.311 1.688 2.987 2.987 0 0 1-1.712 1.711 4.985 4.985 0 0 1-1.67.311c-.95.044-1.218.055-3.654.055-2.438 0-2.687 0-3.655-.055a4.96 4.96 0 0 1-1.669-.311 2.985 2.985 0 0 1-1.719-1.711 5.08 5.08 0 0 1-.311-1.669c-.043-.95-.053-1.218-.053-3.654 0-2.437 0-2.686.053-3.655a5.038 5.038 0 0 1 .311-1.687c.305-.789.93-1.41 1.719-1.712a5.01 5.01 0 0 1 1.669-.311c.951-.043 1.218-.055 3.655-.055s2.687 0 3.654.055a4.96 4.96 0 0 1 1.67.311 2.991 2.991 0 0 1 1.712 1.712 5.08 5.08 0 0 1 .311 1.669c.043.951.054 1.218.054 3.655 0 2.436 0 2.698-.043 3.654h-.011z"/>
        </symbol>

        <symbol id="boxi-twitter" viewBox="0 0 24 24">
            <title>Twitter</title>
            <path d="M19.633 7.997c.013.175.013.349.013.523 0 5.325-4.053 11.461-11.46 11.461-2.282 0-4.402-.661-6.186-1.809.324.037.636.05.973.05a8.07 8.07 0 0 0 5.001-1.721 4.036 4.036 0 0 1-3.767-2.793c.249.037.499.062.761.062.361 0 .724-.05 1.061-.137a4.027 4.027 0 0 1-3.23-3.953v-.05c.537.299 1.16.486 1.82.511a4.022 4.022 0 0 1-1.796-3.354c0-.748.199-1.434.548-2.032a11.457 11.457 0 0 0 8.306 4.215c-.062-.3-.1-.611-.1-.923a4.026 4.026 0 0 1 4.028-4.028c1.16 0 2.207.486 2.943 1.272a7.957 7.957 0 0 0 2.556-.973 4.02 4.02 0 0 1-1.771 2.22 8.073 8.073 0 0 0 2.319-.624 8.645 8.645 0 0 1-2.019 2.083z"/>
        </symbol>

        <symbol id="boxi-quora" viewBox="0 0 24 24">
            <title>Quora</title>
            <path d="M12.555 17.025c-.624-1.227-1.354-2.465-2.781-2.465-.271 0-.546.046-.795.157l-.484-.967c.59-.509 1.544-.911 2.77-.911 1.908 0 2.889.922 3.667 2.094.459-1.001.678-2.354.678-4.03 0-4.188-1.308-6.336-4.366-6.336-3.014 0-4.318 2.148-4.318 6.336 0 4.164 1.305 6.291 4.318 6.291.478 0 .913-.051 1.311-.169zm.747 1.461a7.977 7.977 0 0 1-2.059.274c-4.014 0-7.941-3.202-7.941-7.858C3.303 6.203 7.229 3 11.243 3c4.081 0 7.972 3.179 7.972 7.903 0 2.628-1.226 4.763-3.007 6.143.572.861 1.157 1.436 1.988 1.436.899 0 1.261-.687 1.328-1.236h1.167c.07.73-.301 3.754-3.574 3.754-1.989 0-3.035-1.146-3.822-2.496l.007-.018z"/>
        </symbol>

        <symbol id="boxi-pinterest" viewBox="0 0 24 24">
            <title>Pinterest</title>
            <path d="M11.99 2C6.472 2 2 6.473 2 11.99c0 4.232 2.633 7.85 6.35 9.306-.088-.79-.166-2.006.034-2.868.182-.78 1.172-4.966 1.172-4.966s-.299-.599-.299-1.484c0-1.388.805-2.425 1.808-2.425.853 0 1.264.64 1.264 1.407 0 .858-.546 2.139-.827 3.327-.235.994.499 1.805 1.479 1.805 1.775 0 3.141-1.872 3.141-4.575 0-2.392-1.719-4.064-4.173-4.064-2.843 0-4.512 2.132-4.512 4.335 0 .858.331 1.779.744 2.28a.3.3 0 0 1 .069.286c-.076.315-.245.994-.277 1.133-.044.183-.145.222-.335.134-1.247-.581-2.027-2.405-2.027-3.871 0-3.151 2.289-6.045 6.601-6.045 3.466 0 6.159 2.469 6.159 5.77 0 3.444-2.171 6.213-5.184 6.213-1.013 0-1.964-.525-2.29-1.146l-.623 2.374c-.225.868-.834 1.956-1.241 2.62a10 10 0 0 0 2.958.445c5.517 0 9.99-4.473 9.99-9.99S17.507 2 11.99 2"/>
        </symbol>

        <symbol id="boxi-linkedIn" viewBox="0 0 24 24">
            <title>LinkedIn</title>
            <circle cx="4.983" cy="5.009" r="2.188"/>
            <path d="M9.237 8.855v12.139h3.769v-6.003c0-1.584.298-3.118 2.262-3.118 1.937 0 1.961 1.811 1.961 3.218v5.904H21v-6.657c0-3.27-.704-5.783-4.526-5.783-1.835 0-3.065 1.007-3.568 1.96h-.051v-1.66H9.237zm-6.142 0H6.87v12.139H3.095z"/>
        </symbol>

        
        <symbol id="boxi-youtube" viewBox="0 0 24 24">
            <title>YouTube</title>
            <path d="M21.593 7.203a2.506 2.506 0 0 0-1.762-1.766C18.265 5.007 12 5 12 5s-6.264-.007-7.831.404a2.56 2.56 0 0 0-1.766 1.778c-.413 1.566-.417 4.814-.417 4.814s-.004 3.264.406 4.814c.23.857.905 1.534 1.763 1.765 1.582.43 7.83.437 7.83.437s6.265.007 7.831-.403a2.515 2.515 0 0 0 1.767-1.763c.414-1.565.417-4.812.417-4.812s.02-3.265-.407-4.831zM9.996 15.005l.005-6 5.207 3.005-5.212 2.995z"/>
        </symbol>

        <symbol id="boxi-medium" viewBox="0 0 24 24">
            <title>Medium</title>
            <path d="M4.285 7.269a.733.733 0 0 0-.24-.619l-1.77-2.133v-.32h5.498l4.25 9.32 3.736-9.32H21v.319l-1.515 1.451a.45.45 0 0 0-.168.425v10.666a.448.448 0 0 0 .168.425l1.479 1.451v.319h-7.436v-.319l1.529-1.487c.152-.15.152-.195.152-.424V8.401L10.95 19.218h-.575L5.417 8.401v7.249c-.041.305.06.612.275.833L7.684 18.9v.319H2.036V18.9l1.992-2.417a.971.971 0 0 0 .257-.833V7.269z"/>
        </symbol>

        <!-- PROGRAMMING LANGAUGES ========================== -->

        <symbol id="boxi-javascript" viewBox="0 0 24 24">
            <title>Javascript</title>
            <path d="M3 3h18v18H3V3zm16.525 13.707c-.131-.821-.666-1.511-2.252-2.155-.552-.259-1.165-.438-1.349-.854-.068-.248-.078-.382-.034-.529.113-.484.687-.629 1.137-.495.293.09.563.315.732.676.775-.507.775-.507 1.316-.844-.203-.314-.304-.451-.439-.586-.473-.528-1.103-.798-2.126-.775l-.528.067c-.507.124-.991.395-1.283.754-.855.968-.608 2.655.427 3.354 1.023.765 2.521.933 2.712 1.653.18.878-.652 1.159-1.475 1.058-.607-.136-.945-.439-1.316-1.002l-1.372.788c.157.359.337.517.607.832 1.305 1.316 4.568 1.249 5.153-.754.021-.067.18-.528.056-1.237l.034.049zm-6.737-5.434h-1.686c0 1.453-.007 2.898-.007 4.354 0 .924.047 1.772-.104 2.033-.247.517-.886.451-1.175.359-.297-.146-.448-.349-.623-.641-.047-.078-.082-.146-.095-.146l-1.368.844c.229.473.563.879.994 1.137.641.383 1.502.507 2.404.305.588-.17 1.095-.519 1.358-1.059.384-.697.302-1.553.299-2.509.008-1.541 0-3.083 0-4.635l.003-.042z"/>
        </symbol>

        <symbol id="boxi-reactjs" viewBox="0 0 24 24">
            <title>ReactJS</title>
            <circle cx="12" cy="11.245" r="1.785"/>
            <path d="m7.002 14.794-.395-.101c-2.934-.741-4.617-2.001-4.617-3.452 0-1.452 1.684-2.711 4.617-3.452l.395-.1.111.391a19.507 19.507 0 0 0 1.136 2.983l.085.178-.085.178c-.46.963-.841 1.961-1.136 2.985l-.111.39zm-.577-6.095c-2.229.628-3.598 1.586-3.598 2.542 0 .954 1.368 1.913 3.598 2.54.273-.868.603-1.717.985-2.54a20.356 20.356 0 0 1-.985-2.542zm10.572 6.095-.11-.392a19.628 19.628 0 0 0-1.137-2.984l-.085-.177.085-.179c.46-.961.839-1.96 1.137-2.984l.11-.39.395.1c2.935.741 4.617 2 4.617 3.453 0 1.452-1.683 2.711-4.617 3.452l-.395.101zm-.41-3.553c.4.866.733 1.718.987 2.54 2.23-.627 3.599-1.586 3.599-2.54 0-.956-1.368-1.913-3.599-2.542a20.683 20.683 0 0 1-.987 2.542z"/>
            <path d="m6.419 8.695-.11-.39c-.826-2.908-.576-4.991.687-5.717 1.235-.715 3.222.13 5.303 2.265l.284.292-.284.291a19.718 19.718 0 0 0-2.02 2.474l-.113.162-.196.016a19.646 19.646 0 0 0-3.157.509l-.394.098zm1.582-5.529c-.224 0-.422.049-.589.145-.828.477-.974 2.138-.404 4.38.891-.197 1.79-.338 2.696-.417a21.058 21.058 0 0 1 1.713-2.123c-1.303-1.267-2.533-1.985-3.416-1.985zm7.997 16.984c-1.188 0-2.714-.896-4.298-2.522l-.283-.291.283-.29a19.827 19.827 0 0 0 2.021-2.477l.112-.16.194-.019a19.473 19.473 0 0 0 3.158-.507l.395-.1.111.391c.822 2.906.573 4.992-.688 5.718a1.978 1.978 0 0 1-1.005.257zm-3.415-2.82c1.302 1.267 2.533 1.986 3.415 1.986.225 0 .423-.05.589-.145.829-.478.976-2.142.404-4.384-.89.198-1.79.34-2.698.419a20.526 20.526 0 0 1-1.71 2.124z"/>
            <path d="m17.58 8.695-.395-.099a19.477 19.477 0 0 0-3.158-.509l-.194-.017-.112-.162A19.551 19.551 0 0 0 11.7 5.434l-.283-.291.283-.29c2.08-2.134 4.066-2.979 5.303-2.265 1.262.727 1.513 2.81.688 5.717l-.111.39zm-3.287-1.421c.954.085 1.858.228 2.698.417.571-2.242.425-3.903-.404-4.381-.824-.477-2.375.253-4.004 1.841.616.67 1.188 1.378 1.71 2.123zM8.001 20.15a1.983 1.983 0 0 1-1.005-.257c-1.263-.726-1.513-2.811-.688-5.718l.108-.391.395.1c.964.243 2.026.414 3.158.507l.194.019.113.16c.604.878 1.28 1.707 2.02 2.477l.284.29-.284.291c-1.583 1.627-3.109 2.522-4.295 2.522zm-.993-5.362c-.57 2.242-.424 3.906.404 4.384.825.47 2.371-.255 4.005-1.842a21.17 21.17 0 0 1-1.713-2.123 20.692 20.692 0 0 1-2.696-.419z"/>
            <path d="M12 15.313c-.687 0-1.392-.029-2.1-.088l-.196-.017-.113-.162a25.697 25.697 0 0 1-1.126-1.769 26.028 26.028 0 0 1-.971-1.859l-.084-.177.084-.179c.299-.632.622-1.252.971-1.858.347-.596.726-1.192 1.126-1.77l.113-.16.196-.018a25.148 25.148 0 0 1 4.198 0l.194.019.113.16a25.136 25.136 0 0 1 2.1 3.628l.083.179-.083.177a24.742 24.742 0 0 1-2.1 3.628l-.113.162-.194.017c-.706.057-1.412.087-2.098.087zm-1.834-.904c1.235.093 2.433.093 3.667 0a24.469 24.469 0 0 0 1.832-3.168 23.916 23.916 0 0 0-1.832-3.168 23.877 23.877 0 0 0-3.667 0 23.743 23.743 0 0 0-1.832 3.168 24.82 24.82 0 0 0 1.832 3.168z"/>
        </symbol>

        <symbol id="boxi-vue3" viewBox="0 0 24 24">
            <title>Vue</title>
            <path d="m12 12.765 5.592-9.437h-3.276L12 7.33v.002L9.688 3.328h-3.28z"/>
            <path d="M18.461 3.332 12 14.235 5.539 3.332H1.992L12 20.672l10.008-17.34z"/>
        </symbol>

        <symbol id="boxi-css3" viewBox="0 0 24 24">
            <title>CSS3</title>
            <path d="M4.192 3.143h15.615l-1.42 16.034-6.404 1.812-6.369-1.813L4.192 3.143zM16.9 6.424l-9.8-.002.158 1.949 7.529.002-.189 2.02H9.66l.179 1.913h4.597l-.272 2.62-2.164.598-2.197-.603-.141-1.569h-1.94l.216 2.867L12 17.484l3.995-1.137.905-9.923z"/>
        </symbol>

        <symbol id="boxi-html5" viewBox="0 0 24 24">
            <title>HTML5</title>
            <path d="M4.136 3.012h15.729l-1.431 16.15-6.451 1.826-6.414-1.826-1.433-16.15zm5.266 7.302-.173-2.035 7.533.002.173-1.963-9.87-.002.522 5.998h6.835l-.243 2.566-2.179.602-2.214-.605-.141-1.58H7.691l.247 3.123L12 17.506l4.028-1.08.558-6.111H9.402v-.001z"/>
        </symbol>

        <symbol id="boxi-scss" viewBox="0 0 24 24">
            <title>SCSS</title>
            <path d="M12 2c5.522 0 10 4.478 10 10s-4.478 10-10 10S2 17.522 2 12 6.478 2 12 2zm-1.987 13.332c.146.537.13 1.039-.021 1.493l-.054.15a2.803 2.803 0 0 1-.527.821c-.582.633-1.394.872-1.742.671-.375-.219-.188-1.112.487-1.825.726-.765 1.766-1.258 1.766-1.258v-.002l.091-.05zm8.258-9.051c-.452-1.777-3.397-2.362-6.185-1.371-1.656.589-3.453 1.515-4.743 2.723-1.536 1.434-1.78 2.684-1.68 3.206.355 1.843 2.881 3.048 3.92 3.942v.005c-.307.149-2.548 1.274-3.072 2.438-.563 1.225.088 2.101.513 2.212 1.313.363 2.662-.3 3.388-1.374.699-1.051.638-2.4.337-3.063.413-.112.899-.162 1.524-.086 1.751.199 2.101 1.3 2.024 1.75-.074.449-.436.711-.561.786-.126.076-.163.101-.151.151.013.074.076.074.175.063.138-.025.914-.375.951-1.227.037-1.074-.988-2.273-2.813-2.25-.75.014-1.226.076-1.563.214a.295.295 0 0 0-.088-.088c-1.125-1.213-3.213-2.063-3.125-3.675.025-.588.237-2.137 4-4.012 3.088-1.538 5.551-1.112 5.977-.175.61 1.336-1.314 3.825-4.526 4.187-1.225.138-1.862-.337-2.026-.513-.174-.188-.198-.2-.261-.161-.101.05-.038.212 0 .313.1.249.487.688 1.163.912.587.188 2.024.299 3.75-.375 1.937-.749 3.449-2.838 3.012-4.588l.06.056z"/>
        </symbol>

        <symbol id="boxi-php" viewBox="0 0 24 24">
            <title>PHP</title>
            <path d="M2.15 16.78h1.57a.14.14 0 0 0 .14-.12l.35-1.82h1.22a4.88 4.88 0 0 0 1.51-.2A2.79 2.79 0 0 0 8 14a3.18 3.18 0 0 0 .67-.85 3.43 3.43 0 0 0 .36-1 2.43 2.43 0 0 0-.41-2.16 2.64 2.64 0 0 0-2.09-.78h-3a.16.16 0 0 0-.15.13L2 16.6a.19.19 0 0 0 0 .13.17.17 0 0 0 .15.05zM5 10.62h1a1.45 1.45 0 0 1 1.08.29c.17.18.2.52.11 1a1.81 1.81 0 0 1-.57 1.12 2.17 2.17 0 0 1-1.33.33h-.8zm9.8-.95a2.7 2.7 0 0 0-1.88-.51h-1.19l.33-1.76a.15.15 0 0 0 0-.13.16.16 0 0 0-.11 0h-1.57a.14.14 0 0 0-.14.12l-1.38 7.27a.13.13 0 0 0 0 .12.13.13 0 0 0 .11.06h1.54a.14.14 0 0 0 .14-.13l.77-4.07h1.11c.45 0 .61.1.66.16a.81.81 0 0 1 0 .62l-.61 3.24a.13.13 0 0 0 0 .12.14.14 0 0 0 .11.06h1.56a.16.16 0 0 0 .15-.13l.64-3.4a1.7 1.7 0 0 0-.24-1.64zm4.52-.51h-3.13a.14.14 0 0 0-.15.13l-1.46 7.31a.16.16 0 0 0 0 .13.14.14 0 0 0 .11.05h1.63a.14.14 0 0 0 .15-.12l.37-1.82h1.27a5.28 5.28 0 0 0 1.56-.2 3 3 0 0 0 1.18-.64 3.31 3.31 0 0 0 .7-.85 3.45 3.45 0 0 0 .37-1 2.38 2.38 0 0 0-.42-2.16 2.81 2.81 0 0 0-2.18-.83zm.62 2.77a1.83 1.83 0 0 1-.6 1.12 2.28 2.28 0 0 1-1.37.33h-.8l.54-2.76h1a1.6 1.6 0 0 1 1.13.29c.16.18.16.52.1 1.02z"/>
        </symbol>

        <symbol id="boxi-wordpress" viewBox="0 0 24 24">
            <title>WordPress</title>
            <path d="M19.891 7.788a8.966 8.966 0 0 1 1.099 4.313 8.986 8.986 0 0 1-4.47 7.771l2.746-7.939c.513-1.282.684-2.309.684-3.219a7.165 7.165 0 0 0-.059-.926m-6.651.087a14.14 14.14 0 0 0 1.026-.088c.485-.063.428-.775-.056-.749 0 0-1.463.112-2.4.112-.887 0-2.375-.125-2.375-.125-.487-.024-.55.713-.061.738 0 0 .449.052.938.075l1.399 3.838-1.975 5.899-3.274-9.724a17.006 17.006 0 0 0 1.028-.083c.487-.063.43-.775-.055-.747 0 0-1.455.115-2.395.115-.167 0-.365-.007-.575-.013C6.093 4.726 8.862 3.113 12 3.113c2.341 0 4.471.894 6.071 2.36-.038-.002-.076-.008-.117-.008-.883 0-1.51.77-1.51 1.596 0 .741.427 1.369.883 2.108.343.601.742 1.37.742 2.481 0 .763-.295 1.662-.685 2.899l-.896 2.987-3.25-9.675.002.014zM12 21.087a8.983 8.983 0 0 1-2.54-.364l2.697-7.838 2.763 7.572c.021.044.042.085.065.124a9.016 9.016 0 0 1-2.985.508m-8.99-8.988a8.94 8.94 0 0 1 .778-3.658l4.287 11.749a8.993 8.993 0 0 1-5.065-8.091m8.99-10c-5.513 0-10 4.487-10 10s4.487 10 10 10 10-4.487 10-10-4.487-10-10-10"/>
        </symbol>

        <!-- PAYMENT METHOD ========================== -->
        <symbol id="boxi-paypal" viewBox="0 0 24 24">
            <title>Paypal</title>
            <path d="M19.554 9.488c.121.563.106 1.246-.04 2.051-.582 2.978-2.477 4.466-5.683 4.466h-.442a.666.666 0 0 0-.444.166.72.72 0 0 0-.239.427l-.041.189-.553 3.479-.021.151a.706.706 0 0 1-.247.426.666.666 0 0 1-.447.166H8.874a.395.395 0 0 1-.331-.15.457.457 0 0 1-.09-.363c.061-.373.148-.938.267-1.689.117-.75.206-1.314.267-1.689s.15-.938.272-1.685c.121-.748.212-1.31.271-1.685.033-.248.179-.371.433-.371h1.316c.893.013 1.682-.057 2.375-.211 1.172-.262 2.134-.744 2.886-1.449.685-.637 1.203-1.462 1.56-2.473.162-.47.277-.917.352-1.338.006-.041.014-.066.025-.074.008-.011.022-.014.035-.011a.378.378 0 0 1 .062.035c.524.398.854.941.98 1.632zm-1.728-2.836c0 .717-.154 1.508-.465 2.374-.537 1.562-1.547 2.618-3.037 3.168-.758.269-1.602.408-2.535.425 0 .006-.301.007-.904.007l-.903-.007c-.672 0-1.067.32-1.187.964-.013.053-.298 1.83-.855 5.329-.008.066-.048.102-.121.102H4.854a.473.473 0 0 1-.369-.165.469.469 0 0 1-.115-.39L6.702 3.664a.784.784 0 0 1 .276-.483.785.785 0 0 1 .519-.19h6.014c.228 0 .555.044.979.131.428.084.801.194 1.123.321.718.274 1.266.688 1.645 1.237.379.552.568 1.207.568 1.972z"/>
        </symbol>

        <symbol id="boxi-stripe" viewBox="0 0 24 24">
            <title>Stripe</title>
            <path d="M13.479 9.883c-1.626-.604-2.512-1.067-2.512-1.803 0-.622.511-.977 1.423-.977 1.667 0 3.379.642 4.558 1.22l.666-4.111c-.935-.446-2.847-1.177-5.49-1.177-1.87 0-3.425.489-4.536 1.401-1.155.954-1.757 2.334-1.757 4 0 3.023 1.847 4.312 4.847 5.403 1.936.688 2.579 1.178 2.579 1.934 0 .732-.629 1.155-1.762 1.155-1.403 0-3.716-.689-5.231-1.578l-.674 4.157c1.304.732 3.705 1.488 6.197 1.488 1.976 0 3.624-.467 4.735-1.356 1.245-.977 1.89-2.422 1.89-4.289 0-3.091-1.889-4.38-4.935-5.468h.002z"/>
        </symbol>


        <!-- MOBILE APP STORE ========================== -->
        <symbol id="boxi-microsoft-store-icon" viewBox="0 0 24 24">
            <title>Windows Store</title>
            <path d="m3 5.557 7.357-1.002.004 7.097-7.354.042L3 5.557zm7.354 6.913.006 7.103-7.354-1.011v-6.14l7.348.048zm.892-8.046L21.001 3v8.562l-9.755.077V4.424zm9.758 8.113-.003 8.523-9.755-1.378-.014-7.161 9.772.016z"/>
        </symbol>

        <symbol id="boxi-google-play-icon" viewBox="0 0 24 24">
            <title>Google Play</title>
            <path d="m12.954 11.616 2.957-2.957L6.36 3.291c-.633-.342-1.226-.39-1.746-.016l8.34 8.341zm3.461 3.462 3.074-1.729c.6-.336.929-.812.929-1.34 0-.527-.329-1.004-.928-1.34l-2.783-1.563-3.133 3.132 2.841 2.84zM4.1 4.002c-.064.197-.1.417-.1.658v14.705c0 .381.084.709.236.97l8.097-8.098L4.1 4.002zm8.854 8.855L4.902 20.91c.154.059.32.09.495.09.312 0 .637-.092.968-.276l9.255-5.197-2.666-2.67z"/>
        </symbol>

        <symbol id="boxi-apple-store-icon" viewBox="0 0 24 24">
            <title>Apple Store</title>
            <path d="M19.665 16.811a10.316 10.316 0 0 1-1.021 1.837c-.537.767-.978 1.297-1.316 1.592-.525.482-1.089.73-1.692.744-.432 0-.954-.123-1.562-.373-.61-.249-1.17-.371-1.683-.371-.537 0-1.113.122-1.73.371-.616.25-1.114.381-1.495.393-.577.025-1.154-.229-1.729-.764-.367-.32-.826-.87-1.377-1.648-.59-.829-1.075-1.794-1.455-2.891-.407-1.187-.611-2.335-.611-3.447 0-1.273.275-2.372.826-3.292a4.857 4.857 0 0 1 1.73-1.751 4.65 4.65 0 0 1 2.34-.662c.46 0 1.063.142 1.81.422s1.227.422 1.436.422c.158 0 .689-.167 1.593-.498.853-.307 1.573-.434 2.163-.384 1.6.129 2.801.759 3.6 1.895-1.43.867-2.137 2.08-2.123 3.637.012 1.213.453 2.222 1.317 3.023a4.33 4.33 0 0 0 1.315.863c-.106.307-.218.6-.336.882zM15.998 2.38c0 .95-.348 1.838-1.039 2.659-.836.976-1.846 1.541-2.941 1.452a2.955 2.955 0 0 1-.021-.36c0-.913.396-1.889 1.103-2.688.352-.404.8-.741 1.343-1.009.542-.264 1.054-.41 1.536-.435.013.128.019.255.019.381z"/>
        </symbol>

        <!-- DOWNLOAD APP  ========================== -->
        <symbol id="boxi-windows-store" viewBox="0 0 180 52">
            <title>Windows Store</title>
            <path d="M173.095 52H6.6575C2.99754 52 0 49.0734 0 45.5V6.5C0 2.92663 2.99754 2.74817e-06 6.6575 2.74817e-06H173.095C176.755 2.74817e-06 179.753 2.92663 179.753 6.5V45.5C179.753 49.0734 176.755 52 173.095 52Z" fill="black"/>
            <path d="M173.333 1.04162C176.42 1.04162 178.932 3.4905 178.932 6.5V45.5C178.932 48.5095 176.42 50.9584 173.333 50.9584H6.66667C3.58 50.9584 1.06833 48.5095 1.06833 45.5V6.5C1.06833 3.4905 3.58 1.04162 6.66667 1.04162H173.333ZM173.333 -1.976e-06H6.66667C3.00167 -1.976e-06 0 2.92662 0 6.5V45.5C0 49.0734 3.00167 52 6.66667 52H173.333C176.998 52 180 49.0734 180 45.5V6.5C180 2.92662 176.998 -1.976e-06 173.333 -1.976e-06Z" fill="#A6A6A6"/>
            <path d="M25.48 39.02L12.88 37.2V26.56H25.48V39.02ZM25.48 25.58H12.88V15.5L25.48 13.68V25.58ZM42.7 41.4L26.46 39.02V26.56H42.7V41.4ZM42.7 25.58H26.46V13.68L42.7 11.3V25.58Z" fill="white"/>
            <path d="M64.3998 19.28C63.8398 19.56 62.5799 19.84 61.1799 19.84C59.6399 19.84 58.2399 19.42 57.2599 18.44C56.4199 17.6 55.8599 16.2 55.8599 14.52C55.8599 11.44 57.9599 9.06001 61.4599 9.06001C62.7199 9.06001 63.5599 9.34001 64.1199 9.48001L63.8399 10.6C63.2799 10.32 62.5798 10.18 61.5998 10.18C59.0798 10.18 57.3998 11.72 57.3998 14.38C57.3998 17.04 58.9399 18.58 61.4599 18.58C62.2999 18.58 62.9999 18.44 63.2799 18.3V15.22H61.1799V14.1H64.5399V19.28H64.3998Z" fill="white"/>
            <path d="M67.2 16.2C67.2 18.02 68.46 18.86 69.72 18.86C70.7 18.86 71.26 18.72 71.82 18.44L72.1 19.42C71.68 19.7 70.84 19.84 69.58 19.84C67.34 19.84 65.94 18.3 65.94 16.06C65.94 13.82 67.2 12 69.44 12C71.82 12 72.52 14.1 72.52 15.5C72.52 15.78 72.52 16.06 72.52 16.2H67.2ZM71.26 15.22C71.26 14.38 70.84 12.98 69.44 12.98C68.04 12.98 67.48 14.24 67.34 15.22H71.26Z" fill="white"/>
            <path d="M75.88 10.04V12.14H77.84V13.12H75.88V17.18C75.88 18.16 76.16 18.58 76.86 18.58C77.28 18.58 77.42 18.58 77.7 18.44V19.42C77.42 19.56 77 19.56 76.44 19.56C75.74 19.56 75.32 19.42 75.04 19C74.62 18.58 74.48 17.88 74.48 17.04V12.98H73.36V12H74.48V10.18L75.88 10.04Z" fill="white"/>
            <path d="M84.14 10.04C84.14 10.46 83.86 10.88 83.3 10.88C82.88 10.88 82.46 10.46 82.46 10.04C82.46 9.62001 82.88 9.2 83.3 9.2C83.72 9.2 84.14 9.62001 84.14 10.04ZM82.6 19.7V12.14H84V19.7H82.6Z" fill="white"/>
            <path d="M87.78 10.04V12.14H89.74V13.12H87.78V17.18C87.78 18.16 88.06 18.58 88.76 18.58C89.18 18.58 89.32 18.58 89.6 18.44V19.42C89.32 19.56 88.9 19.56 88.34 19.56C87.64 19.56 87.22 19.42 86.94 19C86.52 18.58 86.38 17.88 86.38 17.04V12.98H85.26V12H86.38V10.18L87.78 10.04Z" fill="white"/>
            <path d="M101.22 15.92C101.22 18.72 99.26 19.98 97.44 19.98C95.48 19.98 93.8 18.44 93.8 16.06C93.8 13.54 95.48 12 97.44 12C99.82 12 101.22 13.54 101.22 15.92ZM95.34 15.92C95.34 17.6 96.32 18.86 97.58 18.86C98.84 18.86 99.82 17.6 99.82 15.92C99.82 14.66 99.12 12.98 97.58 12.98C96.04 12.98 95.34 14.52 95.34 15.92Z" fill="white"/>
            <path d="M102.9 14.24C102.9 13.4 102.9 12.84 102.9 12.14H104.16L104.3 13.4C104.72 12.7 105.56 12 106.82 12C107.8 12 109.48 12.56 109.48 15.22V19.7H108.08V15.36C108.08 14.1 107.66 13.12 106.4 13.12C105.56 13.12 104.86 13.82 104.58 14.52C104.58 14.66 104.44 14.94 104.44 15.22V19.7H103.04V14.24H102.9Z" fill="white"/>
            <path d="M59.5 42.38L55.72 27.12H57.82L59.64 34.82C60.06 36.78 60.48 38.6 60.76 40.14C61.04 38.6 61.46 36.78 62.02 34.82L63.98 27.12H66.08L67.9 34.82C68.32 36.64 68.74 38.46 69.02 40C69.3 38.32 69.72 36.64 70.28 34.68L72.24 26.98H74.2L69.86 42.24H67.76L65.8 34.26C65.38 32.3 64.96 30.76 64.82 29.22C64.54 30.76 64.26 32.16 63.7 34.26L61.6 42.24H59.5V42.38Z" fill="white"/>
            <path d="M77.7 28.24C77.7 28.94 77.28 29.5 76.44 29.5C75.74 29.5 75.18 28.94 75.18 28.24C75.18 27.54 75.74 26.98 76.44 26.98C77.28 27.12 77.7 27.54 77.7 28.24ZM75.46 42.38V31.46H77.42V42.38H75.46Z" fill="white"/>
            <path d="M79.94 34.4C79.94 33.28 79.94 32.3 79.8 31.46H81.62L81.76 33.28C82.32 32.3 83.58 31.18 85.4 31.18C86.94 31.18 89.18 32.02 89.18 35.8V42.38H87.22V36.08C87.22 34.26 86.52 32.86 84.7 32.86C83.44 32.86 82.32 33.84 82.04 34.96C81.9 35.24 81.9 35.52 81.9 35.94V42.52H79.94V34.4Z" fill="white"/>
            <path d="M101.64 26.28V39.58C101.64 40.56 101.64 41.68 101.78 42.38H99.96L99.82 40.42C99.26 41.68 97.86 42.52 96.18 42.52C93.52 42.52 91.56 40.28 91.56 36.92C91.56 33.28 93.8 31.04 96.46 31.04C98.14 31.04 99.26 31.88 99.68 32.72V26.14H101.64V26.28ZM99.68 35.8C99.68 35.52 99.68 35.24 99.54 34.96C99.26 33.7 98.14 32.72 96.74 32.72C94.64 32.72 93.52 34.54 93.52 36.92C93.52 39.16 94.64 40.98 96.74 40.98C98 40.98 99.26 40.14 99.68 38.6C99.68 38.32 99.82 38.04 99.82 37.76V35.8H99.68Z" fill="white"/>
            <path d="M114.1 36.78C114.1 40.84 111.3 42.66 108.64 42.66C105.7 42.66 103.46 40.42 103.46 37.06C103.46 33.42 105.84 31.18 108.92 31.18C112 31.18 114.1 33.42 114.1 36.78ZM105.56 36.92C105.56 39.3 106.96 41.12 108.92 41.12C110.74 41.12 112.28 39.3 112.28 36.92C112.28 35.1 111.3 32.72 109.06 32.72C106.54 32.58 105.56 34.82 105.56 36.92Z" fill="white"/>
            <path d="M116.62 31.32L118.02 36.92C118.3 38.18 118.58 39.3 118.86 40.42C119.14 39.3 119.42 38.18 119.84 36.92L121.66 31.32H123.34L125.02 36.78C125.44 38.04 125.72 39.3 126 40.42C126.14 39.3 126.42 38.18 126.84 36.92L128.38 31.46H130.34L126.84 42.38H125.02L123.34 37.2C122.92 35.94 122.64 34.96 122.36 33.56C122.08 34.82 121.8 35.94 121.38 37.2L119.56 42.38H117.88L114.66 31.46H116.62V31.32Z" fill="white"/>
            <path d="M131.88 40.28C132.44 40.7 133.56 41.12 134.54 41.12C135.94 41.12 136.64 40.42 136.64 39.44C136.64 38.46 136.08 37.9 134.68 37.48C132.72 36.78 131.74 35.66 131.74 34.4C131.74 32.58 133.14 31.18 135.52 31.18C136.64 31.18 137.62 31.46 138.18 31.88L137.62 33.28C137.2 33 136.36 32.58 135.38 32.58C134.26 32.58 133.56 33.28 133.56 34.12C133.56 34.96 134.26 35.38 135.66 35.94C137.48 36.64 138.46 37.62 138.46 39.3C138.46 41.26 136.92 42.52 134.4 42.52C133.14 42.52 132.16 42.24 131.32 41.82L131.88 40.28Z" fill="white"/>
            <path d="M147.7 29.5L145.18 30.9L144.76 29.36L147.98 27.68H149.66V42.38H147.7V29.5Z" fill="white"/>
            <path d="M163.38 34.82C163.38 39.86 161.56 42.52 158.34 42.52C155.54 42.52 153.58 39.86 153.44 34.96C153.44 30.06 155.54 27.26 158.48 27.26C161.7 27.4 163.38 30.2 163.38 34.82ZM155.4 35.1C155.4 38.88 156.52 41.12 158.34 41.12C160.3 41.12 161.28 38.74 161.28 34.96C161.28 31.32 160.3 28.94 158.34 28.94C156.66 28.94 155.4 31.04 155.4 35.1Z" fill="white"/>

        </symbol>

        <symbol id="boxi-google-play" viewBox="0 0 180 52" fill="none">
            <title>Google Play</title>
            <path d="M173.095 52H6.6575C2.99754 52 0 49.0734 0 45.5V6.5C0 2.92663 2.99754 2.74817e-06 6.6575 2.74817e-06H173.095C176.755 2.74817e-06 179.753 2.92663 179.753 6.5V45.5C179.753 49.0734 176.755 52 173.095 52Z" fill="black"/>
            <path d="M173.095 1.04162C176.177 1.04162 178.686 3.4905 178.686 6.5V45.5C178.686 48.5095 176.177 50.9584 173.095 50.9584H6.6575C3.57508 50.9584 1.06686 48.5095 1.06686 45.5V6.5C1.06686 3.4905 3.57508 1.04162 6.6575 1.04162H173.095ZM173.095 2.74817e-06H6.6575C2.99754 2.74817e-06 0 2.92663 0 6.5V45.5C0 49.0734 2.99754 52 6.6575 52H173.095C176.755 52 179.753 49.0734 179.753 45.5V6.5C179.753 2.92663 176.755 2.74817e-06 173.095 2.74817e-06Z" fill="#A6A6A6"/>
            <path d="M63.1364 13.3169C63.1364 14.4024 62.8035 15.2717 62.1478 15.9201C61.3938 16.6887 60.4118 17.0755 59.2085 17.0755C58.0584 17.0755 57.0764 16.6822 56.2709 15.9071C55.4636 15.1206 55.0609 14.1554 55.0609 13C55.0609 11.8446 55.4636 10.8794 56.2709 10.0994C57.0764 9.31775 58.0584 8.9245 59.2085 8.9245C59.781 8.9245 60.327 9.03987 60.8479 9.25437C61.3672 9.4705 61.7899 9.763 62.0962 10.1237L61.4005 10.8095C60.8662 10.1936 60.1389 9.88975 59.2085 9.88975C58.3697 9.88975 57.6423 10.1757 57.0248 10.7526C56.414 11.3311 56.1078 12.0802 56.1078 13C56.1078 13.9197 56.414 14.6754 57.0248 15.2539C57.6423 15.8242 58.3697 16.1167 59.2085 16.1167C60.0989 16.1167 60.8479 15.8242 61.4388 15.2474C61.8282 14.8655 62.0496 14.339 62.1078 13.6662H59.2085V12.727H63.0765C63.1231 12.9301 63.1364 13.1267 63.1364 13.3169Z" fill="white" stroke="white" stroke-width="0.16" stroke-miterlimit="10"/>
            <path d="M69.273 10.0604H65.6396V12.5304H68.9151V13.4696H65.6396V15.9396H69.273V16.8967H64.611V9.10324H69.273V10.0604Z" fill="white" stroke="white" stroke-width="0.16" stroke-miterlimit="10"/>
            <path d="M73.6037 16.8967H72.5751V10.0604H70.3465V9.10324H75.8339V10.0604H73.6037V16.8967Z" fill="white" stroke="white" stroke-width="0.16" stroke-miterlimit="10"/>
            <path d="M79.8051 16.8967V9.10324H80.8321V16.8967H79.8051Z" fill="white" stroke="white" stroke-width="0.16" stroke-miterlimit="10"/>
            <path d="M85.3841 16.8967H84.3638V10.0604H82.1269V9.10324H87.621V10.0604H85.3841V16.8967Z" fill="white" stroke="white" stroke-width="0.16" stroke-miterlimit="10"/>
            <path d="M98.0101 15.8941C97.2228 16.6822 96.2475 17.0755 95.0841 17.0755C93.9141 17.0755 92.9387 16.6822 92.1515 15.8941C91.3659 15.1076 90.9748 14.1424 90.9748 13C90.9748 11.8576 91.3659 10.8924 92.1515 10.1059C92.9387 9.31775 93.9141 8.9245 95.0841 8.9245C96.2409 8.9245 97.2162 9.31775 98.0034 10.1124C98.7957 10.9054 99.1868 11.8641 99.1868 13C99.1868 14.1424 98.7957 15.1076 98.0101 15.8941ZM92.9121 15.2409C93.5046 15.8242 94.2253 16.1167 95.0841 16.1167C95.9363 16.1167 96.6636 15.8242 97.2495 15.2409C97.8403 14.6575 98.1399 13.9084 98.1399 13C98.1399 12.0916 97.8403 11.3425 97.2495 10.7591C96.6636 10.1757 95.9363 9.88325 95.0841 9.88325C94.2253 9.88325 93.5046 10.1757 92.9121 10.7591C92.3213 11.3425 92.0217 12.0916 92.0217 13C92.0217 13.9084 92.3213 14.6575 92.9121 15.2409Z" fill="white" stroke="white" stroke-width="0.16" stroke-miterlimit="10"/>
            <path d="M100.63 16.8967V9.10324H101.878L105.759 15.1645H105.804L105.759 13.6662V9.10324H106.786V16.8967H105.714L101.65 10.5365H101.605L101.65 12.0412V16.8967H100.63Z" fill="white" stroke="white" stroke-width="0.16" stroke-miterlimit="10"/>
            <path d="M90.7218 28.2783C87.5944 28.2783 85.0396 30.602 85.0396 33.8081C85.0396 36.9883 87.5944 39.3364 90.7218 39.3364C93.8558 39.3364 96.4106 36.9883 96.4106 33.8081C96.4106 30.602 93.8558 28.2783 90.7218 28.2783ZM90.7218 37.1589C89.0058 37.1589 87.5295 35.776 87.5295 33.8081C87.5295 31.8143 89.0058 30.4558 90.7218 30.4558C92.4377 30.4558 93.9207 31.8143 93.9207 33.8081C93.9207 35.776 92.4377 37.1589 90.7218 37.1589ZM78.3238 28.2783C75.1898 28.2783 72.6417 30.602 72.6417 33.8081C72.6417 36.9883 75.1898 39.3364 78.3238 39.3364C81.4562 39.3364 84.006 36.9883 84.006 33.8081C84.006 30.602 81.4562 28.2783 78.3238 28.2783ZM78.3238 37.1589C76.6062 37.1589 75.1249 35.776 75.1249 33.8081C75.1249 31.8143 76.6062 30.4558 78.3238 30.4558C80.0398 30.4558 81.5161 31.8143 81.5161 33.8081C81.5161 35.776 80.0398 37.1589 78.3238 37.1589ZM63.5708 29.9731V32.3229H69.3179C69.1498 33.6359 68.7004 34.6011 68.0114 35.2739C67.1725 36.0864 65.866 36.9883 63.5708 36.9883C60.034 36.9883 57.2645 34.2014 57.2645 30.7483C57.2645 27.2952 60.034 24.5083 63.5708 24.5083C65.4832 24.5083 66.8746 25.2379 67.9015 26.1837L69.5975 24.5278C68.1612 23.1888 66.2505 22.1601 63.5708 22.1601C58.7208 22.1601 54.6448 26.013 54.6448 30.7483C54.6448 35.4835 58.7208 39.3364 63.5708 39.3364C66.1922 39.3364 68.1612 38.4979 69.709 36.9249C71.2952 35.3763 71.7895 33.1988 71.7895 31.4405C71.7895 30.8945 71.7429 30.3924 71.6597 29.9731H63.5708ZM123.898 31.7948C123.43 30.5581 121.987 28.2783 119.048 28.2783C116.135 28.2783 113.71 30.5191 113.71 33.8081C113.71 36.9054 116.11 39.3364 119.327 39.3364C121.929 39.3364 123.43 37.7878 124.048 36.8859L122.117 35.6298C121.473 36.5495 120.596 37.1589 119.327 37.1589C118.067 37.1589 117.164 36.595 116.584 35.4835L124.159 32.4236L123.898 31.7948ZM116.175 33.6359C116.11 31.5039 117.871 30.4119 119.133 30.4119C120.121 30.4119 120.96 30.8945 121.24 31.5851L116.175 33.6359ZM110.019 39H112.508V22.75H110.019V39ZM105.941 29.51H105.858C105.298 28.8633 104.232 28.2783 102.88 28.2783C100.044 28.2783 97.4508 30.7093 97.4508 33.826C97.4508 36.9249 100.044 39.3364 102.88 39.3364C104.232 39.3364 105.298 38.7465 105.858 38.0803H105.941V38.8733C105.941 40.9874 104.784 42.1233 102.918 42.1233C101.397 42.1233 100.453 41.0508 100.064 40.1489L97.8985 41.0313C98.5227 42.497 100.175 44.3008 102.918 44.3008C105.838 44.3008 108.301 42.6238 108.301 38.5434V28.6146H105.941V29.51ZM103.093 37.1589C101.377 37.1589 99.9407 35.7565 99.9407 33.826C99.9407 31.8776 101.377 30.4558 103.093 30.4558C104.784 30.4558 106.117 31.8776 106.117 33.826C106.117 35.7565 104.784 37.1589 103.093 37.1589ZM135.555 22.75H129.6V39H132.083V32.8429H135.555C138.313 32.8429 141.018 30.8945 141.018 27.7956C141.018 24.6984 138.306 22.75 135.555 22.75ZM135.62 30.5825H132.083V25.0104H135.62C137.474 25.0104 138.533 26.5135 138.533 27.7956C138.533 29.0534 137.474 30.5825 135.62 30.5825ZM150.97 28.2474C149.176 28.2474 147.311 29.0209 146.543 30.7353L148.747 31.6371C149.221 30.7353 150.093 30.4428 151.015 30.4428C152.304 30.4428 153.61 31.1984 153.63 32.5325V32.7031C153.181 32.4496 152.219 32.0743 151.035 32.0743C148.662 32.0743 146.244 33.3499 146.244 35.7305C146.244 37.908 148.188 39.3104 150.373 39.3104C152.044 39.3104 152.966 38.5743 153.545 37.7179H153.63V38.974H156.029V32.7405C156.029 29.8594 153.825 28.2474 150.97 28.2474ZM150.671 37.1524C149.859 37.1524 148.727 36.7591 148.727 35.776C148.727 34.5183 150.138 34.0356 151.36 34.0356C152.453 34.0356 152.966 34.2713 153.63 34.5816C153.435 36.0864 152.109 37.1524 150.671 37.1524ZM164.766 28.6033L161.912 35.6476H161.827L158.876 28.6033H156.198L160.632 38.4475L158.102 43.9254H160.697L167.529 28.6033H164.766ZM142.382 39H144.872V22.75H142.382V39Z" fill="white"/>
            <path d="M13.8942 9.80036C13.5031 10.2001 13.2767 10.8225 13.2767 11.6285V40.378C13.2767 41.184 13.5031 41.8064 13.8942 42.2061L13.9907 42.2939L30.4914 26.1901V25.8099L13.9907 9.70611L13.8942 9.80036Z" fill="url(#paint0_linear)"/>
            <path d="M35.9855 31.5607L30.4913 26.1901V25.8099L35.9921 20.4392L36.1153 20.5091L42.6296 24.128C44.4887 25.155 44.4887 26.845 42.6296 27.8785L36.1153 31.4908L35.9855 31.5607Z" fill="url(#paint1_linear)"/>
            <path d="M36.1153 31.4909L30.4914 26L13.8942 42.2061C14.5117 42.8399 15.5186 42.9162 16.6637 42.2825L36.1153 31.4909Z" fill="url(#paint2_linear)"/>
            <path d="M36.1153 20.5091L16.6637 9.71751C15.5186 9.09025 14.5117 9.16663 13.8942 9.80038L30.4914 26L36.1153 20.5091Z" fill="url(#paint3_linear)"/>

                <linearGradient id="paint0_linear" x1="29.0263" y1="40.6774" x2="7.21544" y2="18.338" gradientUnits="userSpaceOnUse">
                    <stop stop-color="#00A0FF"/>
                    <stop offset="0.0066" stop-color="#00A1FF"/>
                    <stop offset="0.2601" stop-color="#00BEFF"/>
                    <stop offset="0.5122" stop-color="#00D2FF"/>
                    <stop offset="0.7604" stop-color="#00DFFF"/>
                    <stop offset="1" stop-color="#00E3FF"/>
                </linearGradient>
                <linearGradient id="paint1_linear" x1="45.0505" y1="25.9982" x2="12.8323" y2="25.9982" gradientUnits="userSpaceOnUse">
                    <stop stop-color="#FFE000"/>
                    <stop offset="0.4087" stop-color="#FFBD00"/>
                    <stop offset="0.7754" stop-color="#FFA500"/>
                    <stop offset="1" stop-color="#FF9C00"/>
                </linearGradient>
                <linearGradient id="paint2_linear" x1="33.0572" y1="23.0151" x2="3.47986" y2="-7.27893" gradientUnits="userSpaceOnUse">
                    <stop stop-color="#FF3A44"/>
                    <stop offset="1" stop-color="#C31162"/>
                </linearGradient>
                <linearGradient id="paint3_linear" x1="9.71636" y1="51.7709" x2="22.924" y2="38.2434" gradientUnits="userSpaceOnUse">
                    <stop stop-color="#32A071"/>
                    <stop offset="0.0685" stop-color="#2DA771"/>
                    <stop offset="0.4762" stop-color="#15CF74"/>
                    <stop offset="0.8009" stop-color="#06E775"/>
                    <stop offset="1" stop-color="#00F076"/>
                </linearGradient>

        </symbol>

        <symbol id="boxi-apple-store" viewBox="0 0 180 52">
            <title>Apple Store</title>
            <path d="M179 46.003C179 48.7742 176.709 51.0189 173.874 51.0189H6.13243C3.2995 51.0189 1 48.7742 1 46.003V6.0035C1 3.23367 3.2995 0.981133 6.13243 0.981133H173.873C176.709 0.981133 178.999 3.23367 178.999 6.0035L179 46.003Z" fill="black"/>
            <path d="M173.333 1.04162C176.42 1.04162 178.932 3.4905 178.932 6.5V45.5C178.932 48.5095 176.42 50.9584 173.333 50.9584H6.66667C3.58 50.9584 1.06833 48.5095 1.06833 45.5V6.5C1.06833 3.4905 3.58 1.04162 6.66667 1.04162H173.333ZM173.333 2.74817e-06H6.66667C3.00167 2.74817e-06 0 2.92663 0 6.5V45.5C0 49.0734 3.00167 52 6.66667 52H173.333C176.998 52 180 49.0734 180 45.5V6.5C180 2.92663 176.998 2.74817e-06 173.333 2.74817e-06Z" fill="#A6A6A6"/>
            <path d="M40.1707 25.7192C40.132 21.5293 43.6893 19.4909 43.852 19.396C41.8373 16.5321 38.7147 16.1408 37.6173 16.1096C34.9947 15.8405 32.4507 17.6397 31.1147 17.6397C29.752 17.6397 27.6947 16.1356 25.4773 16.1798C22.624 16.2227 19.9547 17.8334 18.4907 20.3346C15.4693 25.4345 17.7227 32.929 20.6173 37.0513C22.0653 39.0702 23.7573 41.3244 25.972 41.2451C28.1387 41.158 28.948 39.8983 31.5627 39.8983C34.1533 39.8983 34.9133 41.2451 37.172 41.1944C39.4973 41.158 40.9613 39.1664 42.3587 37.1293C44.032 34.8153 44.704 32.5364 44.7307 32.4194C44.676 32.4012 40.2147 30.7411 40.1707 25.7192Z" fill="white"/>
            <path d="M35.904 13.3978C37.0693 11.9769 37.8667 10.0438 37.6453 8.08208C35.9587 8.15488 33.8493 9.21958 32.6347 10.6093C31.56 11.8339 30.6 13.8411 30.848 15.7287C32.7427 15.8665 34.688 14.7966 35.904 13.3978Z" fill="white"/>
            <path d="M71.5267 40.9552H68.4987L66.84 35.8735H61.0747L59.4947 40.9552H56.5467L62.2587 23.6548H65.7867L71.5267 40.9552ZM66.34 33.7415L64.84 29.224C64.6813 28.7625 64.384 27.6757 63.9453 25.9649H63.892C63.7173 26.7007 63.436 27.7875 63.0493 29.224L61.576 33.7415H66.34Z" fill="white"/>
            <path d="M86.216 34.5644C86.216 36.686 85.628 38.363 84.452 39.5941C83.3987 40.69 82.0907 41.2373 80.5293 41.2373C78.844 41.2373 77.6333 40.6471 76.896 39.4667H76.8427V46.0382H74V32.5871C74 31.2533 73.964 29.8844 73.8947 28.4804H76.3947L76.5533 30.4577H76.6067C77.5547 28.9679 78.9933 28.2243 80.924 28.2243C82.4333 28.2243 83.6933 28.8054 84.7013 29.9689C85.712 31.1337 86.216 32.6651 86.216 34.5644ZM83.32 34.6658C83.32 33.4516 83.04 32.4506 82.4773 31.6628C81.8627 30.8412 81.0373 30.4304 80.0027 30.4304C79.3013 30.4304 78.664 30.6592 78.0947 31.1103C77.524 31.5653 77.1506 32.1594 76.976 32.8952C76.888 33.2384 76.844 33.5192 76.844 33.7402V35.8202C76.844 36.7276 77.1293 37.4933 77.7 38.1186C78.2707 38.7439 79.012 39.0559 79.924 39.0559C80.9947 39.0559 81.828 38.6529 82.424 37.8495C83.0213 37.0448 83.32 35.984 83.32 34.6658Z" fill="white"/>
            <path d="M100.932 34.5644C100.932 36.686 100.344 38.363 99.1667 39.5941C98.1147 40.69 96.8067 41.2373 95.2453 41.2373C93.56 41.2373 92.3493 40.6471 91.6133 39.4667H91.56V46.0382H88.7173V32.5871C88.7173 31.2533 88.6813 29.8844 88.612 28.4804H91.112L91.2707 30.4577H91.324C92.2707 28.9679 93.7093 28.2243 95.6413 28.2243C97.1493 28.2243 98.4093 28.8054 99.42 29.9689C100.427 31.1337 100.932 32.6651 100.932 34.5644ZM98.036 34.6658C98.036 33.4516 97.7547 32.4506 97.192 31.6628C96.5773 30.8412 95.7547 30.4304 94.7187 30.4304C94.016 30.4304 93.38 30.6592 92.8093 31.1103C92.2387 31.5653 91.8667 32.1594 91.692 32.8952C91.6053 33.2384 91.56 33.5192 91.56 33.7402V35.8202C91.56 36.7276 91.8453 37.4933 92.4133 38.1186C92.984 38.7426 93.7253 39.0559 94.64 39.0559C95.7107 39.0559 96.544 38.6529 97.14 37.8495C97.7373 37.0448 98.036 35.984 98.036 34.6658Z" fill="white"/>
            <path d="M117.385 36.1036C117.385 37.5752 116.861 38.7725 115.809 39.6968C114.653 40.7069 113.044 41.2113 110.976 41.2113C109.067 41.2113 107.536 40.8525 106.377 40.1336L107.036 37.8235C108.284 38.5593 109.653 38.9285 111.145 38.9285C112.216 38.9285 113.049 38.6919 113.648 38.2213C114.244 37.7507 114.541 37.1189 114.541 36.3311C114.541 35.6291 114.296 35.0376 113.804 34.5579C113.315 34.0782 112.497 33.6323 111.356 33.2202C108.249 32.0905 106.697 30.4356 106.697 28.2594C106.697 26.8372 107.241 25.6711 108.331 24.7637C109.416 23.855 110.864 23.4013 112.675 23.4013C114.289 23.4013 115.631 23.6756 116.701 24.2229L115.991 26.4823C114.991 25.9519 113.86 25.6867 112.595 25.6867C111.595 25.6867 110.813 25.9272 110.253 26.4056C109.78 26.8333 109.543 27.3546 109.543 27.9721C109.543 28.6559 109.813 29.2214 110.357 29.666C110.831 30.0768 111.691 30.5214 112.939 31.0011C114.465 31.6004 115.587 32.3011 116.308 33.1045C117.027 33.9053 117.385 34.9076 117.385 36.1036Z" fill="white"/>
            <path d="M126.784 30.5604H123.651V36.6171C123.651 38.1576 124.203 38.9272 125.309 38.9272C125.817 38.9272 126.239 38.8843 126.572 38.7985L126.651 40.9032C126.091 41.1073 125.353 41.21 124.44 41.21C123.317 41.21 122.44 40.8759 121.807 40.209C121.176 39.5408 120.859 38.4202 120.859 36.8459V30.5578H118.992V28.4778H120.859V26.1937L123.651 25.3721V28.4778H126.784V30.5604Z" fill="white"/>
            <path d="M140.921 34.6151C140.921 36.5326 140.359 38.1069 139.236 39.338C138.059 40.6055 136.496 41.2373 134.548 41.2373C132.671 41.2373 131.176 40.6302 130.061 39.416C128.947 38.2018 128.389 36.6691 128.389 34.8218C128.389 32.8887 128.963 31.3053 130.113 30.0742C131.261 28.8418 132.811 28.2256 134.759 28.2256C136.636 28.2256 138.147 28.8327 139.287 30.0482C140.377 31.2273 140.921 32.7496 140.921 34.6151ZM137.972 34.7048C137.972 33.5543 137.72 32.5676 137.209 31.7447C136.613 30.7489 135.761 30.2523 134.657 30.2523C133.515 30.2523 132.647 30.7502 132.051 31.7447C131.54 32.5689 131.288 33.5712 131.288 34.7568C131.288 35.9073 131.54 36.894 132.051 37.7156C132.665 38.7114 133.524 39.208 134.632 39.208C135.717 39.208 136.569 38.701 137.184 37.6896C137.708 36.8511 137.972 35.854 137.972 34.7048Z" fill="white"/>
            <path d="M150.161 30.9179C149.88 30.8672 149.58 30.8412 149.265 30.8412C148.265 30.8412 147.492 31.2091 146.948 31.9462C146.475 32.5962 146.237 33.4178 146.237 34.4097V40.9552H143.396L143.423 32.409C143.423 30.9712 143.387 29.6621 143.316 28.4817H145.792L145.896 30.8685H145.975C146.275 30.0482 146.748 29.3878 147.396 28.8925C148.029 28.4466 148.713 28.2243 149.451 28.2243C149.713 28.2243 149.951 28.2425 150.161 28.275V30.9179Z" fill="white"/>
            <path d="M162.875 34.1276C162.875 34.6242 162.841 35.0428 162.771 35.3847H154.243C154.276 36.6171 154.688 37.5596 155.48 38.2096C156.199 38.7907 157.128 39.0819 158.269 39.0819C159.532 39.0819 160.684 38.8856 161.72 38.4917L162.165 40.4157C160.955 40.9305 159.525 41.1866 157.876 41.1866C155.892 41.1866 154.335 40.6172 153.201 39.4797C152.071 38.3422 151.504 36.8147 151.504 34.8985C151.504 33.0174 152.031 31.4509 153.085 30.2016C154.189 28.8678 155.681 28.2009 157.559 28.2009C159.403 28.2009 160.799 28.8678 161.747 30.2016C162.497 31.2611 162.875 32.5715 162.875 34.1276ZM160.164 33.4087C160.183 32.5871 159.997 31.8773 159.612 31.278C159.12 30.5071 158.364 30.1223 157.347 30.1223C156.417 30.1223 155.661 30.498 155.084 31.252C154.611 31.8513 154.329 32.5702 154.243 33.4074H160.164V33.4087Z" fill="white"/>
            <path d="M65.4 13.0117C65.4 14.5418 64.9293 15.6936 63.9893 16.4671C63.1187 17.1808 61.8813 17.5383 60.2787 17.5383C59.484 17.5383 58.804 17.5045 58.2347 17.4369V9.07661C58.9773 8.95961 59.7773 8.89981 60.6413 8.89981C62.168 8.89981 63.3187 9.22351 64.0947 9.87091C64.964 10.6028 65.4 11.6493 65.4 13.0117ZM63.9267 13.0494C63.9267 12.0575 63.6573 11.297 63.1187 10.7666C62.58 10.2375 61.7933 9.97231 60.7573 9.97231C60.3173 9.97231 59.9427 10.0009 59.632 10.0607V16.4164C59.804 16.4424 60.1187 16.4541 60.576 16.4541C61.6453 16.4541 62.4707 16.1642 63.052 15.5844C63.6333 15.0046 63.9267 14.1596 63.9267 13.0494Z" fill="white"/>
            <path d="M73.212 14.3481C73.212 15.2906 72.936 16.0628 72.384 16.6686C71.8053 17.2913 71.0387 17.602 70.0813 17.602C69.1587 17.602 68.424 17.3043 67.876 16.7063C67.3293 16.1096 67.056 15.3569 67.056 14.4495C67.056 13.5005 67.3373 12.7218 67.9027 12.1173C68.468 11.5128 69.228 11.2099 70.1853 11.2099C71.108 11.2099 71.8493 11.5076 72.4107 12.1043C72.944 12.6841 73.212 13.4329 73.212 14.3481ZM71.7627 14.3923C71.7627 13.8268 71.6373 13.3419 71.388 12.9376C71.0947 12.4488 70.6773 12.2044 70.1347 12.2044C69.5733 12.2044 69.1467 12.4488 68.8533 12.9376C68.6027 13.3419 68.4787 13.8346 68.4787 14.417C68.4787 14.9825 68.604 15.4674 68.8533 15.8717C69.156 16.3605 69.5773 16.6049 70.1213 16.6049C70.6547 16.6049 71.0733 16.3566 71.3747 15.8587C71.6333 15.4466 71.7627 14.9578 71.7627 14.3923Z" fill="white"/>
            <path d="M83.6867 11.3347L81.72 17.4629H80.44L79.6253 14.8018C79.4187 14.1375 79.2507 13.4771 79.12 12.8219H79.0947C78.9733 13.4953 78.8053 14.1544 78.5893 14.8018L77.724 17.4629H76.4293L74.58 11.3347H76.016L76.7267 14.248C76.8987 14.937 77.04 15.5935 77.1533 16.2149H77.1787C77.2827 15.7027 77.4547 15.0501 77.6973 14.261L78.5893 11.336H79.728L80.5827 14.1986C80.7893 14.8967 80.9573 15.5688 81.0867 16.2162H81.1253C81.22 15.5857 81.3627 14.9136 81.552 14.1986L82.3147 11.336H83.6867V11.3347Z" fill="white"/>
            <path d="M90.9307 17.4629H89.5333V13.9529C89.5333 12.8713 89.112 12.3305 88.2667 12.3305C87.852 12.3305 87.5173 12.4787 87.2573 12.7764C87 13.0741 86.8693 13.4251 86.8693 13.8268V17.4616H85.472V13.0858C85.472 12.5476 85.4547 11.9639 85.4213 11.3321H86.6493L86.7147 12.2902H86.7533C86.916 11.9925 87.1587 11.7468 87.4773 11.5505C87.856 11.3217 88.28 11.206 88.744 11.206C89.3307 11.206 89.8187 11.3906 90.2067 11.7611C90.6893 12.2148 90.9307 12.8921 90.9307 13.7917V17.4629Z" fill="white"/>
            <path d="M94.784 17.4629H93.388V8.5228H94.784V17.4629Z" fill="white"/>
            <path d="M103.011 14.3481C103.011 15.2906 102.735 16.0628 102.183 16.6686C101.604 17.2913 100.836 17.602 99.88 17.602C98.956 17.602 98.2213 17.3043 97.6747 16.7063C97.128 16.1096 96.8547 15.3569 96.8547 14.4495C96.8547 13.5005 97.136 12.7218 97.7013 12.1173C98.2667 11.5128 99.0267 11.2099 99.9827 11.2099C100.907 11.2099 101.647 11.5076 102.209 12.1043C102.743 12.6841 103.011 13.4329 103.011 14.3481ZM101.56 14.3923C101.56 13.8268 101.435 13.3419 101.185 12.9376C100.893 12.4488 100.475 12.2044 99.9333 12.2044C99.3707 12.2044 98.944 12.4488 98.652 12.9376C98.4013 13.3419 98.2773 13.8346 98.2773 14.417C98.2773 14.9825 98.4027 15.4674 98.652 15.8717C98.9547 16.3605 99.376 16.6049 99.92 16.6049C100.453 16.6049 100.871 16.3566 101.172 15.8587C101.432 15.4466 101.56 14.9578 101.56 14.3923Z" fill="white"/>
            <path d="M109.773 17.4629H108.519L108.415 16.757H108.376C107.947 17.3199 107.335 17.602 106.54 17.602C105.947 17.602 105.467 17.4161 105.105 17.0469C104.777 16.7115 104.613 16.2942 104.613 15.7989C104.613 15.0501 104.933 14.4794 105.577 14.0842C106.22 13.689 107.124 13.4953 108.288 13.5044V13.39C108.288 12.5827 107.853 12.1797 106.983 12.1797C106.363 12.1797 105.816 12.3318 105.344 12.6334L105.06 11.739C105.644 11.3867 106.365 11.2099 107.216 11.2099C108.859 11.2099 109.683 12.0549 109.683 13.7449V16.0017C109.683 16.614 109.713 17.1015 109.773 17.4629ZM108.323 15.3569V14.4118C106.781 14.3858 106.011 14.7979 106.011 15.6468C106.011 15.9666 106.099 16.2058 106.279 16.3657C106.459 16.5256 106.688 16.6049 106.961 16.6049C107.268 16.6049 107.555 16.51 107.816 16.3215C108.079 16.1317 108.24 15.8912 108.3 15.5961C108.315 15.5298 108.323 15.4492 108.323 15.3569Z" fill="white"/>
            <path d="M117.713 17.4629H116.473L116.408 16.4788H116.369C115.973 17.2276 115.299 17.602 114.351 17.602C113.593 17.602 112.963 17.3121 112.463 16.7323C111.963 16.1525 111.713 15.3998 111.713 14.4755C111.713 13.4836 111.984 12.6802 112.528 12.0666C113.055 11.4946 113.7 11.2086 114.468 11.2086C115.312 11.2086 115.903 11.4855 116.239 12.0406H116.265V8.5228H117.664V15.8119C117.664 16.4086 117.68 16.9585 117.713 17.4629ZM116.265 14.8785V13.8567C116.265 13.6799 116.252 13.5369 116.227 13.4277C116.148 13.1001 115.979 12.8245 115.721 12.6022C115.461 12.3799 115.148 12.2681 114.787 12.2681C114.265 12.2681 113.857 12.4696 113.557 12.8739C113.26 13.2782 113.109 13.7943 113.109 14.4248C113.109 15.0306 113.252 15.522 113.539 15.9003C113.841 16.3033 114.249 16.5048 114.76 16.5048C115.219 16.5048 115.585 16.3371 115.864 16.0004C116.133 15.6897 116.265 15.3153 116.265 14.8785Z" fill="white"/>
            <path d="M129.664 14.3481C129.664 15.2906 129.388 16.0628 128.836 16.6686C128.257 17.2913 127.492 17.602 126.533 17.602C125.612 17.602 124.877 17.3043 124.328 16.7063C123.781 16.1096 123.508 15.3569 123.508 14.4495C123.508 13.5005 123.789 12.7218 124.355 12.1173C124.92 11.5128 125.68 11.2099 126.639 11.2099C127.56 11.2099 128.303 11.5076 128.863 12.1043C129.396 12.6841 129.664 13.4329 129.664 14.3481ZM128.216 14.3923C128.216 13.8268 128.091 13.3419 127.841 12.9376C127.547 12.4488 127.131 12.2044 126.587 12.2044C126.027 12.2044 125.6 12.4488 125.305 12.9376C125.055 13.3419 124.931 13.8346 124.931 14.417C124.931 14.9825 125.056 15.4674 125.305 15.8717C125.608 16.3605 126.029 16.6049 126.573 16.6049C127.107 16.6049 127.527 16.3566 127.828 15.8587C128.085 15.4466 128.216 14.9578 128.216 14.3923Z" fill="white"/>
            <path d="M137.177 17.4629H135.781V13.9529C135.781 12.8713 135.36 12.3305 134.513 12.3305C134.099 12.3305 133.764 12.4787 133.505 12.7764C133.247 13.0741 133.117 13.4251 133.117 13.8268V17.4616H131.719V13.0858C131.719 12.5476 131.703 11.9639 131.669 11.3321H132.896L132.961 12.2902H133C133.164 11.9925 133.407 11.7468 133.724 11.5505C134.104 11.3217 134.527 11.206 134.992 11.206C135.577 11.206 136.065 11.3906 136.453 11.7611C136.937 12.2148 137.177 12.8921 137.177 13.7917V17.4629Z" fill="white"/>
            <path d="M146.581 12.3552H145.043V15.3322C145.043 16.0888 145.316 16.4671 145.857 16.4671C146.108 16.4671 146.316 16.4463 146.48 16.4034L146.516 17.4369C146.24 17.5383 145.877 17.589 145.431 17.589C144.879 17.589 144.449 17.4252 144.139 17.0976C143.827 16.77 143.672 16.2188 143.672 15.4453V12.3552H142.753V11.3347H143.672V10.2115L145.041 9.80851V11.3334H146.58V12.3552H146.581Z" fill="white"/>
            <path d="M153.979 17.4629H152.58V13.9789C152.58 12.8804 152.159 12.3305 151.315 12.3305C150.667 12.3305 150.224 12.649 149.981 13.286C149.94 13.4199 149.916 13.5837 149.916 13.7761V17.4616H148.52V8.5228H149.916V12.2161H149.943C150.383 11.544 151.013 11.2086 151.831 11.2086C152.409 11.2086 152.888 11.3932 153.268 11.7637C153.741 12.2252 153.979 12.9116 153.979 13.819V17.4629Z" fill="white"/>
            <path d="M161.609 14.1089C161.609 14.3533 161.591 14.5587 161.557 14.7264H157.367C157.385 15.3322 157.585 15.7937 157.973 16.1135C158.328 16.3995 158.785 16.5425 159.345 16.5425C159.965 16.5425 160.531 16.4463 161.04 16.2526L161.259 17.199C160.663 17.4512 159.961 17.5773 159.149 17.5773C158.176 17.5773 157.409 17.2978 156.855 16.7388C156.297 16.1798 156.021 15.4297 156.021 14.4885C156.021 13.5642 156.279 12.7946 156.797 12.181C157.339 11.5258 158.071 11.1982 158.995 11.1982C159.899 11.1982 160.585 11.5258 161.049 12.181C161.424 12.701 161.609 13.3445 161.609 14.1089ZM160.276 13.7566C160.287 13.3523 160.195 13.0039 160.005 12.7101C159.763 12.3318 159.393 12.142 158.893 12.142C158.437 12.142 158.065 12.3266 157.781 12.6971C157.549 12.9922 157.412 13.3445 157.367 13.7566H160.276Z" fill="white"/>

        </symbol>

</defs>

</svg>